<svg aria-hidden="true" style="position: absolute; width: 0; height: 0; overflow: hidden;" version="1.1" xmlns="http://www.w3.org/2000/svg" xmlns:xlink="http://www.w3.org/1999/xlink">
<defs>
<symbol id="icon-telegram" viewBox="0 0 32 32">
<path fill="#fff" style="fill: var(--color1, #fff)" d="M8 18.245l3.47 9.965c0 0 0.434 0.932 0.899 0.932s7.375-7.458 7.375-7.458l7.685-15.399-19.305 9.387-0.124 2.572z"></path>
<path fill="#1a0233" style="fill: var(--color2, #1a0233)" d="M12.185 20l-0.743 8.047c0 0-0.311 2.466 2.108 0s4.736-4.367 4.736-4.367z"></path>
<path fill="#1a0233" style="fill: var(--color2, #1a0233)" d="M7.868 18.179l-7.227-2.345c0 0-0.864-0.349-0.586-1.14 0.057-0.163 0.173-0.302 0.518-0.541 1.601-1.111 29.638-11.146 29.638-11.146s0.792-0.266 1.259-0.089c0.116 0.036 0.219 0.101 0.301 0.19s0.138 0.197 0.164 0.315c0.051 0.208 0.072 0.422 0.063 0.635-0.002 0.185-0.025 0.356-0.042 0.625-0.171 2.744-5.281 23.22-5.281 23.22s-0.306 1.198-1.401 1.239c-0.269 0.009-0.538-0.037-0.789-0.133s-0.48-0.243-0.674-0.43c-2.15-1.841-9.579-6.814-11.221-7.907-0.037-0.025-0.068-0.058-0.091-0.096s-0.038-0.081-0.043-0.125c-0.023-0.115 0.103-0.258 0.103-0.258s12.937-11.451 13.281-12.653c0.027-0.093-0.074-0.139-0.209-0.098-0.859 0.315-15.755 9.682-17.399 10.716-0.118 0.036-0.243 0.043-0.365 0.022z"></path>
</symbol>
<symbol id="icon-twitch" viewBox="0 0 32 32">
<path fill="#fefefe" style="fill: var(--color3, #fefefe)" d="M7.987 21.264h4.316v4.197l8.136-3.81 3.81-1.27 4.455-5.586v-13.981l-20.083 0.129-3.433 6.102 1.141 14.487 1.657-0.248v-0.020z"></path>
<path fill="#1a0233" style="fill: var(--color2, #1a0233)" d="M7.869 0l-5.596 5.596v20.758h6.846v5.646l5.686-5.686h4.673l10.25-10.25v-16.064h-21.859zM27.346 14.933l-4.495 4.495h-4.594l-3.999 3.999v-4.029h-5.13v-17.067h18.218v12.602z"></path>
<path fill="#303030" style="fill: var(--color4, #303030)" d="M17.602 6.202h-2.213v6.985h2.213v-6.985z"></path>
<path fill="#303030" style="fill: var(--color4, #303030)" d="M23.933 6.202h-2.213v6.985h2.213v-6.985z"></path>
</symbol>
<symbol id="icon-youtube" viewBox="0 0 32 32">
<path fill="#1a0233" style="fill: var(--color2, #1a0233)" d="M16 4.784c-15.060 0.264-16-0.602-16 11.216s0.908 10.899 16 11.216c15.303-0.444 16 0.56 16-11.216s-1.447-11.036-16-11.216zM12.832 20.826v-9.674l8.227 4.847-8.227 4.837v-0.011z"></path>
<path fill="#fff" style="fill: var(--color1, #fff)" d="M21.059 16l-8.227 4.826v-9.674l8.227 4.848z"></path>
</symbol>
<symbol id="icon-linkedin" viewBox="0 0 32 32">
<path fill="#1a0233" style="fill: var(--color2, #1a0233)" d="M29.6-0h-27.2c-1.325 0-2.4 1.075-2.4 2.4v0 27.2c0 1.325 1.075 2.4 2.4 2.4v0h27.2c1.325 0 2.4-1.075 2.4-2.4v0-27.2c0-1.325-1.075-2.4-2.4-2.4v0zM9.6 27.2h-4.8v-14.4h4.8zM7.2 10c-1.512-0.045-2.72-1.281-2.72-2.799 0-1.546 1.254-2.8 2.8-2.8s2.799 1.253 2.8 2.799v0c-0.027 1.552-1.291 2.8-2.848 2.8-0.011 0-0.023-0-0.034-0h0.002zM27.2 27.2h-4.8v-7.584c0-2.272-0.96-3.088-2.208-3.088-1.456 0.1-2.599 1.305-2.599 2.778 0 0.070 0.003 0.139 0.008 0.207l-0.001-0.009c-0.004 0.034-0.006 0.073-0.006 0.112s0.002 0.078 0.006 0.117l-0-0.005v7.472h-4.8v-14.4h4.64v2.080c0.903-1.359 2.427-2.243 4.158-2.243 0.057 0 0.114 0.001 0.17 0.003l-0.008-0c2.48 0 5.376 1.376 5.376 5.856z"></path>
</symbol>
<symbol id="icon-buy-me-a-coffee" viewBox="0 0 32 32">
<path fill="#010202" style="fill: var(--color5, #010202)" d="M24.741 7.442l-0.019-0.010-0.049-0.019c0.010 0.019 0.039 0.029 0.068 0.029z"></path>
<path fill="#010202" style="fill: var(--color5, #010202)" d="M25.062 9.736v0z"></path>
<path fill="#010202" style="fill: var(--color5, #010202)" d="M24.741 7.432c0 0 0 0 0 0-0.010 0-0.010 0 0 0 0 0 0 0 0 0z"></path>
<path fill="#010202" style="fill: var(--color5, #010202)" d="M25.033 9.717l0.039-0.019 0.019-0.019c-0.019 0.010-0.039 0.029-0.058 0.039z"></path>
<path fill="#010202" style="fill: var(--color5, #010202)" d="M24.8 7.49l-0.039-0.039-0.029-0.010c0.019 0.019 0.039 0.039 0.068 0.049z"></path>
<path fill="#010202" style="fill: var(--color5, #010202)" d="M15.689 29.697c-0.029 0.010-0.058 0.029-0.078 0.058l0.019-0.019c0.029-0.019 0.049-0.029 0.058-0.039z"></path>
<path fill="#010202" style="fill: var(--color5, #010202)" d="M20.988 28.647c0-0.029-0.019-0.029-0.010 0.087 0-0.010 0-0.019 0.010-0.029-0.010-0.010-0.010-0.029 0-0.058z"></path>
<path fill="#010202" style="fill: var(--color5, #010202)" d="M20.434 29.697c-0.029 0.010-0.058 0.029-0.078 0.058l0.019-0.019c0.029-0.019 0.049-0.029 0.058-0.039z"></path>
<path fill="#010202" style="fill: var(--color5, #010202)" d="M11.965 29.94c-0.019-0.019-0.049-0.029-0.078-0.039 0.019 0.010 0.049 0.019 0.058 0.029l0.019 0.010z"></path>
<path fill="#010202" style="fill: var(--color5, #010202)" d="M11.139 29.143c0-0.029-0.010-0.068-0.029-0.097 0.010 0.029 0.019 0.058 0.029 0.097v0z"></path>
<path fill="#ffdd06" style="fill: var(--color6, #ffdd06)" d="M16.759 14.783c-1.147 0.496-2.46 1.050-4.152 1.050-0.71 0-1.41-0.097-2.090-0.292l1.167 12.017c0.039 0.506 0.272 0.972 0.642 1.313s0.856 0.535 1.361 0.535c0 0 1.663 0.087 2.217 0.087 0.593 0 2.382-0.087 2.382-0.087 0.506 0 0.992-0.185 1.361-0.535 0.369-0.34 0.603-0.807 0.642-1.313l1.254-13.272c-0.564-0.194-1.128-0.321-1.76-0.321-1.108 0-1.993 0.379-3.024 0.817z"></path>
<path fill="#010202" style="fill: var(--color5, #010202)" d="M6.89 9.668l0.029 0.029c0-0.019-0.010-0.029-0.029-0.029z"></path>
<path fill="#1a0233" style="fill: var(--color2, #1a0233)" d="M26.948 8.55l-0.175-0.885c-0.156-0.797-0.515-1.556-1.332-1.838-0.263-0.088-0.564-0.136-0.758-0.321-0.204-0.194-0.263-0.486-0.311-0.758-0.087-0.506-0.165-1.011-0.253-1.517-0.078-0.438-0.136-0.924-0.331-1.313-0.263-0.535-0.797-0.846-1.332-1.050-0.272-0.097-0.554-0.185-0.836-0.263-1.332-0.35-2.732-0.476-4.103-0.554-1.643-0.087-3.296-0.068-4.939 0.078-1.225 0.107-2.508 0.243-3.665 0.671-0.428 0.156-0.865 0.34-1.186 0.671-0.399 0.399-0.525 1.031-0.233 1.526 0.204 0.36 0.554 0.613 0.924 0.778 0.476 0.214 0.982 0.379 1.497 0.486 1.439 0.321 2.917 0.438 4.385 0.496 1.624 0.068 3.247 0.010 4.871-0.156 0.399-0.049 0.797-0.097 1.196-0.156 0.467-0.068 0.768-0.69 0.632-1.108-0.165-0.515-0.613-0.71-1.108-0.632-0.078 0.010-0.146 0.019-0.224 0.029l-0.049 0.010c-0.175 0.019-0.34 0.039-0.515 0.058-0.35 0.039-0.7 0.068-1.060 0.097-0.788 0.058-1.585 0.078-2.382 0.078-0.778 0-1.556-0.019-2.333-0.078-0.36-0.019-0.71-0.049-1.060-0.087-0.165-0.019-0.321-0.039-0.476-0.058l-0.156-0.019h-0.029l-0.156-0.019c-0.321-0.049-0.642-0.107-0.963-0.175-0.029-0.010-0.058-0.029-0.078-0.049s-0.029-0.058-0.029-0.087c0-0.029 0.010-0.068 0.029-0.087s0.049-0.039 0.078-0.049h0.010c0.272-0.058 0.554-0.107 0.836-0.156 0.097-0.019 0.185-0.029 0.282-0.039v0c0.175-0.010 0.35-0.039 0.525-0.068 1.517-0.156 3.043-0.214 4.57-0.165 0.739 0.019 1.478 0.068 2.217 0.136 0.156 0.019 0.321 0.029 0.476 0.049 0.058 0.010 0.117 0.019 0.185 0.019l0.126 0.019c0.36 0.049 0.71 0.117 1.070 0.194 0.525 0.117 1.196 0.156 1.429 0.72 0.078 0.185 0.107 0.379 0.146 0.574l0.049 0.243c0 0 0 0.010 0 0.010 0.126 0.574 0.243 1.147 0.369 1.721 0.010 0.039 0.010 0.088 0 0.126s-0.029 0.088-0.049 0.117c-0.029 0.039-0.058 0.068-0.097 0.088s-0.078 0.039-0.117 0.039v0l-0.156 0.019c-0.233 0.029-0.476 0.058-0.71 0.088-0.467 0.049-0.933 0.097-1.4 0.136-0.933 0.078-1.857 0.126-2.79 0.156-0.476 0.010-0.953 0.019-1.429 0.019-1.896 0-3.782-0.107-5.659-0.331-0.204-0.019-0.408-0.049-0.613-0.078 0.156 0.019-0.117-0.019-0.165-0.019-0.126-0.019-0.263-0.039-0.389-0.058-0.438-0.068-0.865-0.146-1.303-0.214-0.525-0.088-1.021-0.039-1.497 0.214-0.389 0.214-0.7 0.535-0.904 0.933-0.204 0.418-0.263 0.885-0.36 1.332-0.088 0.457-0.233 0.943-0.175 1.41 0.117 1.001 0.817 1.818 1.828 2.003 0.953 0.175 1.906 0.311 2.868 0.428 3.763 0.457 7.574 0.515 11.347 0.165 0.311-0.029 0.613-0.058 0.924-0.097 0.097-0.010 0.194 0 0.282 0.029s0.175 0.088 0.243 0.156c0.068 0.068 0.117 0.146 0.156 0.243 0.029 0.088 0.049 0.185 0.039 0.282l-0.097 0.933c-0.194 1.877-0.389 3.753-0.574 5.639-0.204 1.974-0.399 3.947-0.603 5.921-0.058 0.554-0.117 1.108-0.175 1.663-0.058 0.544-0.058 1.108-0.165 1.653-0.165 0.846-0.739 1.371-1.575 1.565-0.768 0.175-1.556 0.263-2.343 0.272-0.875 0-1.75-0.029-2.625-0.029-0.933 0.010-2.081-0.078-2.8-0.778-0.632-0.613-0.72-1.565-0.807-2.392-0.117-1.089-0.233-2.188-0.34-3.277l-0.632-6.077-0.408-3.938c-0.010-0.068-0.010-0.126-0.019-0.194-0.049-0.467-0.379-0.924-0.904-0.904-0.447 0.019-0.953 0.399-0.904 0.904l0.301 2.917 0.632 6.028c0.175 1.711 0.36 3.422 0.535 5.143 0.039 0.331 0.068 0.661 0.107 0.982 0.194 1.799 1.565 2.761 3.267 3.034 0.992 0.156 2.003 0.194 3.014 0.204 1.293 0.019 2.596 0.068 3.86-0.165 1.877-0.34 3.286-1.595 3.49-3.549 0.058-0.564 0.117-1.128 0.175-1.682 0.194-1.857 0.379-3.714 0.574-5.581l0.622-6.077 0.282-2.781c0.010-0.136 0.068-0.272 0.165-0.369s0.214-0.175 0.35-0.194c0.535-0.107 1.050-0.282 1.429-0.69 0.564-0.642 0.681-1.488 0.467-2.343zM6.744 9.153c0.010 0-0.010 0.068-0.010 0.097-0.010-0.049-0.010-0.097 0.010-0.097zM6.793 9.552c0 0 0.019 0.010 0.029 0.039-0.019-0.019-0.029-0.039-0.029-0.039v0zM6.841 9.62c0.019 0.039 0.029 0.058 0 0v0zM6.948 9.707v0c0 0 0.010 0 0 0 0 0 0 0 0 0v0zM24.975 9.581c-0.194 0.185-0.486 0.272-0.768 0.311-3.218 0.476-6.495 0.72-9.752 0.613-2.333-0.078-4.638-0.34-6.952-0.661-0.224-0.029-0.467-0.078-0.622-0.243-0.292-0.311-0.146-0.943-0.068-1.332 0.068-0.35 0.204-0.817 0.622-0.865 0.642-0.078 1.4 0.194 2.032 0.292 0.768 0.117 1.546 0.214 2.314 0.282 3.306 0.301 6.68 0.253 9.966-0.185 0.603-0.078 1.196-0.175 1.799-0.282 0.535-0.097 1.118-0.272 1.439 0.272 0.224 0.379 0.253 0.875 0.214 1.303 0 0.194-0.087 0.369-0.224 0.496v0z"></path>
</symbol>
</defs>
</svg>
