<svg aria-hidden="true" style="position: absolute; width: 0; height: 0; overflow: hidden;" version="1.1" xmlns="http://www.w3.org/2000/svg" xmlns:xlink="http://www.w3.org/1999/xlink">
<defs>
<symbol id="icon-telegram" viewBox="0 0 32 32">
<path fill="#fff" style="fill: var(--color1, #fff)" d="M8 18.245l3.47 9.965c0 0 0.434 0.932 0.899 0.932s7.375-7.458 7.375-7.458l7.685-15.399-19.305 9.387-0.124 2.572z"></path>
<path fill="#1a0233" style="fill: var(--color2, #1a0233)" d="M12.185 20l-0.743 8.047c0 0-0.311 2.466 2.108 0s4.736-4.367 4.736-4.367z"></path>
<path fill="#1a0233" style="fill: var(--color2, #1a0233)" d="M7.868 18.179l-7.227-2.345c0 0-0.864-0.349-0.586-1.14 0.057-0.163 0.173-0.302 0.518-0.541 1.601-1.111 29.638-11.146 29.638-11.146s0.792-0.266 1.259-0.089c0.116 0.036 0.219 0.101 0.301 0.19s0.138 0.197 0.164 0.315c0.051 0.208 0.072 0.422 0.063 0.635-0.002 0.185-0.025 0.356-0.042 0.625-0.171 2.744-5.281 23.22-5.281 23.22s-0.306 1.198-1.401 1.239c-0.269 0.009-0.538-0.037-0.789-0.133s-0.48-0.243-0.674-0.43c-2.15-1.841-9.579-6.814-11.221-7.907-0.037-0.025-0.068-0.058-0.091-0.096s-0.038-0.081-0.043-0.125c-0.023-0.115 0.103-0.258 0.103-0.258s12.937-11.451 13.281-12.653c0.027-0.093-0.074-0.139-0.209-0.098-0.859 0.315-15.755 9.682-17.399 10.716-0.118 0.036-0.243 0.043-0.365 0.022z"></path>
</symbol>
<symbol id="icon-twitch" viewBox="0 0 32 32">
<path fill="#fefefe" style="fill: var(--color3, #fefefe)" d="M7.987 21.264h4.316v4.197l8.136-3.81 3.81-1.27 4.455-5.586v-13.981l-20.083 0.129-3.433 6.102 1.141 14.487 1.657-0.248v-0.020z"></path>
<path fill="#1a0233" style="fill: var(--color2, #1a0233)" d="M7.869 0l-5.596 5.596v20.758h6.846v5.646l5.686-5.686h4.673l10.25-10.25v-16.064h-21.859zM27.346 14.933l-4.495 4.495h-4.594l-3.999 3.999v-4.029h-5.13v-17.067h18.218v12.602z"></path>
<path fill="#303030" style="fill: var(--color4, #303030)" d="M17.602 6.202h-2.213v6.985h2.213v-6.985z"></path>
<path fill="#303030" style="fill: var(--color4, #303030)" d="M23.933 6.202h-2.213v6.985h2.213v-6.985z"></path>
</symbol>
<symbol id="icon-youtube" viewBox="0 0 32 32">
<path fill="#1a0233" style="fill: var(--color2, #1a0233)" d="M16 4.784c-15.060 0.264-16-0.602-16 11.216s0.908 10.899 16 11.216c15.303-0.444 16 0.56 16-11.216s-1.447-11.036-16-11.216zM12.832 20.826v-9.674l8.227 4.847-8.227 4.837v-0.011z"></path>
<path fill="#fff" style="fill: var(--color1, #fff)" d="M21.059 16l-8.227 4.826v-9.674l8.227 4.848z"></path>
</symbol>
</defs>
</svg>
