<!-- Generated by IcoMoon.io -->
<svg version="1.1" xmlns="http://www.w3.org/2000/svg" width="32" height="32" viewBox="0 0 32 32">
<path fill="#010202" d="M24.741 7.442l-0.019-0.010-0.049-0.019c0.010 0.019 0.039 0.029 0.068 0.029z"></path>
<path fill="#010202" d="M25.062 9.736v0z"></path>
<path fill="#010202" d="M24.741 7.432c0 0 0 0 0 0-0.010 0-0.010 0 0 0 0 0 0 0 0 0z"></path>
<path fill="#010202" d="M25.033 9.717l0.039-0.019 0.019-0.019c-0.019 0.010-0.039 0.029-0.058 0.039z"></path>
<path fill="#010202" d="M24.8 7.49l-0.039-0.039-0.029-0.010c0.019 0.019 0.039 0.039 0.068 0.049z"></path>
<path fill="#010202" d="M15.689 29.697c-0.029 0.010-0.058 0.029-0.078 0.058l0.019-0.019c0.029-0.019 0.049-0.029 0.058-0.039z"></path>
<path fill="#010202" d="M20.988 28.647c0-0.029-0.019-0.029-0.010 0.087 0-0.010 0-0.019 0.010-0.029-0.010-0.010-0.010-0.029 0-0.058z"></path>
<path fill="#010202" d="M20.434 29.697c-0.029 0.010-0.058 0.029-0.078 0.058l0.019-0.019c0.029-0.019 0.049-0.029 0.058-0.039z"></path>
<path fill="#010202" d="M11.965 29.94c-0.019-0.019-0.049-0.029-0.078-0.039 0.019 0.010 0.049 0.019 0.058 0.029l0.019 0.010z"></path>
<path fill="#010202" d="M11.139 29.143c0-0.029-0.010-0.068-0.029-0.097 0.010 0.029 0.019 0.058 0.029 0.097v0z"></path>
<path fill="#ffdd06" d="M16.759 14.783c-1.147 0.496-2.46 1.050-4.152 1.050-0.71 0-1.41-0.097-2.090-0.292l1.167 12.017c0.039 0.506 0.272 0.972 0.642 1.313s0.856 0.535 1.361 0.535c0 0 1.663 0.087 2.217 0.087 0.593 0 2.382-0.087 2.382-0.087 0.506 0 0.992-0.185 1.361-0.535 0.369-0.34 0.603-0.807 0.642-1.313l1.254-13.272c-0.564-0.194-1.128-0.321-1.76-0.321-1.108 0-1.993 0.379-3.024 0.817z"></path>
<path fill="#010202" d="M6.89 9.668l0.029 0.029c0-0.019-0.010-0.029-0.029-0.029z"></path>
<path fill="#1a0233" d="M26.948 8.55l-0.175-0.885c-0.156-0.797-0.515-1.556-1.332-1.838-0.263-0.088-0.564-0.136-0.758-0.321-0.204-0.194-0.263-0.486-0.311-0.758-0.087-0.506-0.165-1.011-0.253-1.517-0.078-0.438-0.136-0.924-0.331-1.313-0.263-0.535-0.797-0.846-1.332-1.050-0.272-0.097-0.554-0.185-0.836-0.263-1.332-0.35-2.732-0.476-4.103-0.554-1.643-0.087-3.296-0.068-4.939 0.078-1.225 0.107-2.508 0.243-3.665 0.671-0.428 0.156-0.865 0.34-1.186 0.671-0.399 0.399-0.525 1.031-0.233 1.526 0.204 0.36 0.554 0.613 0.924 0.778 0.476 0.214 0.982 0.379 1.497 0.486 1.439 0.321 2.917 0.438 4.385 0.496 1.624 0.068 3.247 0.010 4.871-0.156 0.399-0.049 0.797-0.097 1.196-0.156 0.467-0.068 0.768-0.69 0.632-1.108-0.165-0.515-0.613-0.71-1.108-0.632-0.078 0.010-0.146 0.019-0.224 0.029l-0.049 0.010c-0.175 0.019-0.34 0.039-0.515 0.058-0.35 0.039-0.7 0.068-1.060 0.097-0.788 0.058-1.585 0.078-2.382 0.078-0.778 0-1.556-0.019-2.333-0.078-0.36-0.019-0.71-0.049-1.060-0.087-0.165-0.019-0.321-0.039-0.476-0.058l-0.156-0.019h-0.029l-0.156-0.019c-0.321-0.049-0.642-0.107-0.963-0.175-0.029-0.010-0.058-0.029-0.078-0.049s-0.029-0.058-0.029-0.087c0-0.029 0.010-0.068 0.029-0.087s0.049-0.039 0.078-0.049h0.010c0.272-0.058 0.554-0.107 0.836-0.156 0.097-0.019 0.185-0.029 0.282-0.039v0c0.175-0.010 0.35-0.039 0.525-0.068 1.517-0.156 3.043-0.214 4.57-0.165 0.739 0.019 1.478 0.068 2.217 0.136 0.156 0.019 0.321 0.029 0.476 0.049 0.058 0.010 0.117 0.019 0.185 0.019l0.126 0.019c0.36 0.049 0.71 0.117 1.070 0.194 0.525 0.117 1.196 0.156 1.429 0.72 0.078 0.185 0.107 0.379 0.146 0.574l0.049 0.243c0 0 0 0.010 0 0.010 0.126 0.574 0.243 1.147 0.369 1.721 0.010 0.039 0.010 0.088 0 0.126s-0.029 0.088-0.049 0.117c-0.029 0.039-0.058 0.068-0.097 0.088s-0.078 0.039-0.117 0.039v0l-0.156 0.019c-0.233 0.029-0.476 0.058-0.71 0.088-0.467 0.049-0.933 0.097-1.4 0.136-0.933 0.078-1.857 0.126-2.79 0.156-0.476 0.010-0.953 0.019-1.429 0.019-1.896 0-3.782-0.107-5.659-0.331-0.204-0.019-0.408-0.049-0.613-0.078 0.156 0.019-0.117-0.019-0.165-0.019-0.126-0.019-0.263-0.039-0.389-0.058-0.438-0.068-0.865-0.146-1.303-0.214-0.525-0.088-1.021-0.039-1.497 0.214-0.389 0.214-0.7 0.535-0.904 0.933-0.204 0.418-0.263 0.885-0.36 1.332-0.088 0.457-0.233 0.943-0.175 1.41 0.117 1.001 0.817 1.818 1.828 2.003 0.953 0.175 1.906 0.311 2.868 0.428 3.763 0.457 7.574 0.515 11.347 0.165 0.311-0.029 0.613-0.058 0.924-0.097 0.097-0.010 0.194 0 0.282 0.029s0.175 0.088 0.243 0.156c0.068 0.068 0.117 0.146 0.156 0.243 0.029 0.088 0.049 0.185 0.039 0.282l-0.097 0.933c-0.194 1.877-0.389 3.753-0.574 5.639-0.204 1.974-0.399 3.947-0.603 5.921-0.058 0.554-0.117 1.108-0.175 1.663-0.058 0.544-0.058 1.108-0.165 1.653-0.165 0.846-0.739 1.371-1.575 1.565-0.768 0.175-1.556 0.263-2.343 0.272-0.875 0-1.75-0.029-2.625-0.029-0.933 0.010-2.081-0.078-2.8-0.778-0.632-0.613-0.72-1.565-0.807-2.392-0.117-1.089-0.233-2.188-0.34-3.277l-0.632-6.077-0.408-3.938c-0.010-0.068-0.010-0.126-0.019-0.194-0.049-0.467-0.379-0.924-0.904-0.904-0.447 0.019-0.953 0.399-0.904 0.904l0.301 2.917 0.632 6.028c0.175 1.711 0.36 3.422 0.535 5.143 0.039 0.331 0.068 0.661 0.107 0.982 0.194 1.799 1.565 2.761 3.267 3.034 0.992 0.156 2.003 0.194 3.014 0.204 1.293 0.019 2.596 0.068 3.86-0.165 1.877-0.34 3.286-1.595 3.49-3.549 0.058-0.564 0.117-1.128 0.175-1.682 0.194-1.857 0.379-3.714 0.574-5.581l0.622-6.077 0.282-2.781c0.010-0.136 0.068-0.272 0.165-0.369s0.214-0.175 0.35-0.194c0.535-0.107 1.050-0.282 1.429-0.69 0.564-0.642 0.681-1.488 0.467-2.343zM6.744 9.153c0.010 0-0.010 0.068-0.010 0.097-0.010-0.049-0.010-0.097 0.010-0.097zM6.793 9.552c0 0 0.019 0.010 0.029 0.039-0.019-0.019-0.029-0.039-0.029-0.039v0zM6.841 9.62c0.019 0.039 0.029 0.058 0 0v0zM6.948 9.707v0c0 0 0.010 0 0 0 0 0 0 0 0 0v0zM24.975 9.581c-0.194 0.185-0.486 0.272-0.768 0.311-3.218 0.476-6.495 0.72-9.752 0.613-2.333-0.078-4.638-0.34-6.952-0.661-0.224-0.029-0.467-0.078-0.622-0.243-0.292-0.311-0.146-0.943-0.068-1.332 0.068-0.35 0.204-0.817 0.622-0.865 0.642-0.078 1.4 0.194 2.032 0.292 0.768 0.117 1.546 0.214 2.314 0.282 3.306 0.301 6.68 0.253 9.966-0.185 0.603-0.078 1.196-0.175 1.799-0.282 0.535-0.097 1.118-0.272 1.439 0.272 0.224 0.379 0.253 0.875 0.214 1.303 0 0.194-0.087 0.369-0.224 0.496v0z"></path>
</svg>
