<!-- Generated by IcoMoon.io -->
<svg version="1.1" xmlns="http://www.w3.org/2000/svg" width="32" height="32" viewBox="0 0 32 32">
<path fill="#1a0233" d="M29.6-0h-27.2c-1.325 0-2.4 1.075-2.4 2.4v0 27.2c0 1.325 1.075 2.4 2.4 2.4v0h27.2c1.325 0 2.4-1.075 2.4-2.4v0-27.2c0-1.325-1.075-2.4-2.4-2.4v0zM9.6 27.2h-4.8v-14.4h4.8zM7.2 10c-1.512-0.045-2.72-1.281-2.72-2.799 0-1.546 1.254-2.8 2.8-2.8s2.799 1.253 2.8 2.799v0c-0.027 1.552-1.291 2.8-2.848 2.8-0.011 0-0.023-0-0.034-0h0.002zM27.2 27.2h-4.8v-7.584c0-2.272-0.96-3.088-2.208-3.088-1.456 0.1-2.599 1.305-2.599 2.778 0 0.070 0.003 0.139 0.008 0.207l-0.001-0.009c-0.004 0.034-0.006 0.073-0.006 0.112s0.002 0.078 0.006 0.117l-0-0.005v7.472h-4.8v-14.4h4.64v2.080c0.903-1.359 2.427-2.243 4.158-2.243 0.057 0 0.114 0.001 0.17 0.003l-0.008-0c2.48 0 5.376 1.376 5.376 5.856z"></path>
</svg>
