<!-- Generated by IcoMoon.io -->
<svg version="1.1" xmlns="http://www.w3.org/2000/svg" width="32" height="32" viewBox="0 0 32 32">
<path fill="#fefefe" d="M7.987 21.264h4.316v4.197l8.136-3.81 3.81-1.27 4.455-5.586v-13.981l-20.083 0.129-3.433 6.102 1.141 14.487 1.657-0.248v-0.020z"></path>
<path fill="#1a0233" d="M7.869 0l-5.596 5.596v20.758h6.846v5.646l5.686-5.686h4.673l10.25-10.25v-16.064h-21.859zM27.346 14.933l-4.495 4.495h-4.594l-3.999 3.999v-4.029h-5.13v-17.067h18.218v12.602z"></path>
<path fill="#303030" d="M17.602 6.202h-2.213v6.985h2.213v-6.985z"></path>
<path fill="#303030" d="M23.933 6.202h-2.213v6.985h2.213v-6.985z"></path>
</svg>
