<svg fill="none" height="23" viewBox="0 0 28 23" width="28" xmlns="http://www.w3.org/2000/svg"><path d="m7 13.4643 3.0366 8.7198s.3797.8159.7862.8159c.4066 0 6.4532-6.5261 6.4532-6.5261l6.724-13.4739-16.89165 8.2134z" fill="#fff"/><g fill="#1a0233"><path d="m10.6617 15-.6503 7.0411s-.27221 2.1575 1.8449 0c2.1172-2.1575 4.1437-3.8211 4.1437-3.8211"/><path d="m6.88415 13.4064-6.323489-2.0517s-.755727-.3053-.5123828-.9977c.0500939-.1427.1511448-.2642.4534358-.473 1.401116-.97252 25.933486-9.753106 25.933486-9.753106s.6927-.232432 1.1012-.0778354c.1011.0311529.192.0884804.2635.1661154.0715.077636.1211.172794.1435.275742.0442.181831.0626.368905.0549.555814-.002.16169-.0216.31156-.0365.54657-.1494 2.40065-4.6207 20.3175-4.6207 20.3175s-.2676 1.0484-1.226 1.0843c-.2356.0076-.4703-.0322-.6901-.1168-.2198-.0847-.4202-.2126-.5893-.376-1.8809-1.6111-8.3819-5.9618-9.8184-6.9186-.0324-.022-.0597-.0506-.08-.084s-.0333-.0707-.0379-.1095c-.0201-.1008.0901-.2258.0901-.2258s11.3199-10.01969 11.6211-11.07154c.0233-.0815-.0648-.1217-.1831-.08601-.7518.27544-13.78532 8.47165-15.22379 9.37615-.10354.0312-.21298.0379-.31956.0194z"/></g></svg>