<svg width="39" height="39" viewBox="0 0 39 39" fill="none" xmlns="http://www.w3.org/2000/svg">
<g clip-path="url(#clip0_34_7234)">
<mask id="mask0_34_7234" style="mask-type:luminance" maskUnits="userSpaceOnUse" x="0" y="0" width="39" height="39">
<path d="M39 0H0V39H39V0Z" fill="white"/>
</mask>
<g mask="url(#mask0_34_7234)">
<path d="M26.9883 39H12.0117C5.37515 39 0 33.6248 0 26.9883V12.0117C0 5.37515 5.37515 0 12.0117 0H26.9883C33.6248 0 39 5.37515 39 12.0117V26.9883C39 33.6248 33.6248 39 26.9883 39Z" fill="#864FF6"/>
<path d="M13.016 25.0278H16.5111V28.4264L23.0994 25.3412L26.1847 24.3127L29.7923 19.7892V8.46848L13.5302 8.57293L10.7502 13.5142L11.6742 25.2447L13.016 25.0439V25.0278Z" fill="#FEFEFE"/>
<path d="M12.9197 7.80964L8.38818 12.3412V29.1496H13.9321V33.7213L18.5359 29.1174H22.3202L30.62 20.8177V7.80964H12.9197ZM28.6916 19.9017L25.052 23.5414H21.3319L18.094 26.7794V23.5173H13.9401V9.69777H28.6916V19.9017Z" fill="#303030"/>
<path d="M20.8015 12.8313H19.0098V18.4876H20.8015V12.8313Z" fill="#303030"/>
<path d="M25.9277 12.8313H24.136V18.4876H25.9277V12.8313Z" fill="#303030"/>
</g>
</g>
<defs>
<clipPath id="clip0_34_7234">
<rect width="39" height="39" fill="white"/>
</clipPath>
</defs>
</svg>
