<svg width="23" height="27" viewBox="0 0 23 27" fill="none" xmlns="http://www.w3.org/2000/svg">
<path d="M5.016 18.0278H8.51106V21.4265L15.0994 18.3412L18.1847 17.3128L21.7923 12.7893V1.46851L5.53022 1.57296L2.75024 6.51424L3.67422 18.2448L5.016 18.0439V18.0278Z" fill="#FEFEFE"/>
<path d="M4.9197 0.80957L0.388184 5.34109V22.1495H5.93207V26.7212L10.5359 22.1174H14.3202L22.62 13.8176V0.80957H4.9197ZM20.6916 12.9017L17.052 16.5413H13.3319L10.094 19.7793V16.5172H5.9401V2.6977H20.6916V12.9017Z" fill="#1A0233"/>
<path d="M12.8015 5.8313H11.0098V11.4877H12.8015V5.8313Z" fill="#303030"/>
<path d="M17.9277 5.8313H16.136V11.4877H17.9277V5.8313Z" fill="#303030"/>
</svg>
