<svg fill="none" height="39" viewBox="0 0 39 39" width="39" xmlns="http://www.w3.org/2000/svg" xmlns:xlink="http://www.w3.org/1999/xlink"><clipPath id="a"><path d="m0 0h39v39h-39z"/></clipPath><mask id="b" height="39" maskUnits="userSpaceOnUse" width="39" x="0" y="0"><path d="m39 0h-39v39h39z" fill="#fff"/></mask><g clip-path="url(#a)"><g mask="url(#b)"><path d="m26.9883 39h-14.9766c-6.63655 0-12.0117-5.3752-12.0117-12.0117v-14.9766c0-6.63655 5.37515-12.0117 12.0117-12.0117h14.9766c6.6365 0 12.0117 5.37515 12.0117 12.0117v14.9766c0 6.6365-5.3752 12.0117-12.0117 12.0117z" fill="#864ff6"/><path d="m13.016 25.0278h3.4951v3.3986l6.5883-3.0852 3.0853-1.0285 3.6076-4.5235v-11.32072l-16.2621.10445-2.78 4.94127.924 11.7305 1.3418-.2008z" fill="#fefefe"/><g fill="#303030"><path d="m12.9197 7.80964-4.53152 4.53156v16.8084h5.54392v4.5717l4.6038-4.6039h3.7843l8.2998-8.2997v-13.00806zm15.7719 12.09206-3.6396 3.6397h-3.7201l-3.2379 3.238v-3.2621h-4.1539v-13.81953h14.7515z"/><path d="m20.8015 12.8313h-1.7917v5.6563h1.7917z"/><path d="m25.9277 12.8313h-1.7917v5.6563h1.7917z"/></g></g></g></svg>