<svg fill="none" height="39" viewBox="0 0 39 39" width="39" xmlns="http://www.w3.org/2000/svg" xmlns:xlink="http://www.w3.org/1999/xlink"><clipPath id="a"><path d="m0 0h39v39h-39z"/></clipPath><mask id="b" height="29" maskUnits="userSpaceOnUse" width="25" x="7" y="10"><path d="m31.6725 10.1477h-24.34486v28.2176h24.34486z" fill="#fff"/></mask><g clip-path="url(#a)"><path d="m26.9883 39h-14.9766c-6.63655 0-12.0117-5.3752-12.0117-12.0117v-14.9766c0-6.63655 5.37515-12.0117 12.0117-12.0117h14.9766c6.6365 0 12.0117 5.37515 12.0117 12.0117v14.9766c0 6.6365-5.3752 12.0117-12.0117 12.0117z" fill="#fff"/><g mask="url(#b)"><path d="m19.5001 10.1477c-11.45738.2009-12.17246-.45796-12.17246 8.5328 0 8.9907.69097 8.2917 12.17246 8.5327 11.6421-.3374 12.1724.4259 12.1724-8.5327 0-8.95862-1.1007-8.3962-12.1724-8.5328zm-2.4104 12.2046v-7.3597l6.2589 3.6879-6.2589 3.6798z" fill="#f00"/><path d="m23.3486 18.6805-6.259 3.6718v-7.3597z" fill="#fff"/></g></g></svg>