<svg width="39" height="39" viewBox="0 0 39 39" fill="none" xmlns="http://www.w3.org/2000/svg">
<g clip-path="url(#clip0_34_7246)">
<path d="M26.9883 39H12.0117C5.37515 39 0 33.6248 0 26.9883V12.0117C0 5.37515 5.37515 0 12.0117 0H26.9883C33.6248 0 39 5.37515 39 12.0117V26.9883C39 33.6248 33.6248 39 26.9883 39Z" fill="white"/>
<mask id="mask0_34_7246" style="mask-type:luminance" maskUnits="userSpaceOnUse" x="7" y="10" width="25" height="29">
<path d="M31.6725 10.1477H7.32764V38.3653H31.6725V10.1477Z" fill="white"/>
</mask>
<g mask="url(#mask0_34_7246)">
<path d="M19.5001 10.1477C8.04272 10.3486 7.32764 9.68974 7.32764 18.6805C7.32764 27.6712 8.01861 26.9722 19.5001 27.2132C31.1422 26.8758 31.6725 27.6391 31.6725 18.6805C31.6725 9.72188 30.5718 10.2843 19.5001 10.1477ZM17.0897 22.3523V14.9926L23.3486 18.6805L17.0897 22.3603V22.3523Z" fill="#FF0000"/>
<path d="M23.3486 18.6805L17.0896 22.3523V14.9926L23.3486 18.6805Z" fill="white"/>
</g>
</g>
<defs>
<clipPath id="clip0_34_7246">
<rect width="39" height="39" fill="white"/>
</clipPath>
</defs>
</svg>
