<svg fill="none" height="152" viewBox="0 0 85 152" width="85" xmlns="http://www.w3.org/2000/svg" xmlns:xlink="http://www.w3.org/1999/xlink"><clipPath id="a"><path d="m0 0h84.39v151.88h-84.39z"/></clipPath><g clip-path="url(#a)"><path d="m83.98 128.4-.4-.89s-.04-.09-.12-.26c-.09-.13-.21-.49-.38-.93-.15-.49-.33-1.14-.5-2-.17-.85-.35-1.86-.48-3.05-.28-2.34-.49-5.27-.79-8.51-.28-3.25-.63-6.84-1.39-10.56-.35-1.86-.87-3.75-1.44-5.64-.62-1.89-1.35-3.78-2.28-5.59-.46-.9-.98-1.79-1.52-2.64-.58-.84-1.12-1.68-1.77-2.45-.32-.39-.63-.77-.94-1.15-.34-.36-.68-.71-1.01-1.06-.65-.71-1.37-1.31-2.05-1.89-1.38-1.15-2.77-2.08-4.04-2.79-1.18-.75-2.62-1.32-3.68-1.79-.5-.2-.92-.38-1.27-.52l-6.45-7.52h-22.57l-6.45 7.52c-.35.14-.77.31-1.27.52-1.05.46-2.49 1.04-3.68 1.79-1.26.72-2.65 1.65-4.04 2.79-.69.59-1.4 1.18-2.05 1.89-.33.35-.67.7-1.01 1.06-.31.38-.62.76-.94 1.15-.65.77-1.18 1.61-1.76998 2.45-.53.86-1.06 1.74-1.52 2.64-.94 1.81-1.66 3.7-2.28 5.59-.56 1.89-1.09 3.79-1.44 5.64-.75 3.72-1.1 7.31-1.39 10.56-.3 3.24-.51 6.17-.79 8.51-.13 1.18-.31 2.19-.48 3.05-.17.85-.35 1.5-.5 2-.16.45-.29.8-.379999.93-.08.17-.12.26-.12.26l-.4.89c-.92 2.03-.26 4.5 1.659999 5.78 1.28.85 2.82.97 4.16.48-.69 1.21-1.11 2.6-1.13 4.1-.06 4.7 3.69 8.56 8.38998 8.62l8.67.12 4.34.04c1.01 0 2.03.02 3.04.02-.12.46-.23.92-.33 1.39-.14.68.01 1.43.48 2.02.84 1.05 2.38 1.22 3.43.38.66-.53 1.27-1.09 1.88-1.65.58-.58 1.2-1.13 1.75-1.72.18-.18.34-.36.52-.54.75-.03 1.51-.06 2.26-.09.97-.04 1.94-.1 2.91-.16.97.06 1.94.12 2.91.16.75.03 1.51.06 2.26.09.17.18.34.36.52.54.56.59 1.17 1.15 1.75 1.72.61.56 1.22 1.12 1.88 1.65.55.43 1.28.64 2.02.48 1.32-.27 2.17-1.56 1.9-2.88-.1-.47-.21-.93-.33-1.39 1.01 0 2.03-.02 3.04-.02l4.34-.04 8.67-.12c2.41-.04 4.82-1.1 6.46-3.11 2.26-2.75 2.5-6.49.91-9.44.94.2 1.94.13 2.88-.3 2.33-1.06 3.37-3.81 2.31-6.14zm-43.2 6.57c-.41-.1-.83-.2-1.24-.3.43-.25.86-.5 1.29-.76.23-.14.47-.3.69-.46.34-.24.65-.51.95-.78.5.46 1.04.87 1.64 1.24.42.26.86.51 1.29.76-.41.1-.83.2-1.24.3-.56.14-1.12.28-1.68.43-.56-.15-1.12-.29-1.68-.43zm-31.20998-3.79c.19-.36.39-.76.60998-1.22.4-.89.81-1.94 1.17-3.08s.7-2.41 1.02-3.73c.66-2.66 1.24-5.61 1.92-8.65.71-3.02 1.5-6.14 2.53-8.96.43-1.24.94-2.39 1.47-3.47l-.93 22.82c-2.61 2.07-5.2 4.18-7.77998 6.3zm57.45998-6.73-.91-22.38c.53 1.09 1.04 2.23 1.47 3.47 1.03 2.83 1.82 5.94 2.53 8.96.67 3.04 1.26 5.99 1.92 8.65.32 1.32.66 2.58 1.02 3.73s.77 2.2 1.17 3.08c.08.17.16.33.24.48-2.46-2.02-4.93-4.03-7.43-6z" fill="#27004b"/><g stroke-linecap="round" stroke-linejoin="round"><path d="m18.1201 107.66-.5701 13h49.58l-.57-13z" fill="#00c10d" stroke="#00c10d"/><path d="m28.22 115.56s-.38 8.88 3.78 16.05l3.97-3.21s-3.21-13.41-7.18-17.56z" fill="#14a01d" stroke="#14a01d" stroke-width="1.13"/><path d="m24.2401 107.66-.39 13h4.39l.38-13z" fill="#14a01d" stroke="#14a01d"/><path d="m25.9501 115.94s-4.91 10.01-5.1 15.11l3.02 4.34s5.48-11.33 4.34-17.75l-2.27-1.7z" fill="#14a01d" stroke="#14a01d" stroke-width="1.13"/></g><path d="m9.84009 41.48c0 16.53 16.68001 29.9301 32.19001 29.9301s32.19-13.4001 32.19-29.9301-14.41-29.93-32.19-29.93-32.19001 13.39-32.19001 29.93z" fill="#ffdbc5"/><path d="m42.03 0c-23 0-39.50001 19.26-41.640012 40.51-2.309998 22.88 9.750012 37.11 41.640012 37.11s44.34-14.27 41.64-37.11c-2.19-18.6-18.64-40.51-41.64-40.51zm22.3 53.51h-44.65c-4.99 0-8.58-4.8-7.16-9.59l.66-2.23c3.78-12.78 15.51-21.54 28.83-21.54s25.06 8.77 28.83 21.54l.66 2.23c1.42 4.79-2.17 9.59-7.16 9.59z" fill="#27004b"/><path d="m71.5001 41.9501-.66-2.23c-3.78-12.78-15.51-21.54-28.83-21.54s-25.06 8.77-28.83 21.54l-.66 2.23c-.37 1.25-.39 2.49-.15 3.65.04-.21.08-.42.15-.63l.66-2.23c3.78-12.78 15.51-21.54 28.83-21.54s25.06 8.77 28.83 21.54l.66 2.23c.06.21.1.42.15.63.25-1.16.22-2.41-.15-3.65z" fill="#453434"/><path d="m42.0301 74.6001c-28.63 0-41.269962-11.47-41.889962-30.37-.66 20.69 11.759962 33.39 41.889962 33.39s42.72-12.56 41.97-32.97c-.59 18.62-13.55 29.95-41.97 29.95z" fill="#453434"/><path d="m23.95 42.34c0 2.21 1.7999 4.01 4.0099 4.01s4.01-1.8 4.01-4.01" stroke="#293330" stroke-linecap="round" stroke-miterlimit="10" stroke-width="2.1"/><path d="m60.4399 42.34c0 2.21-1.8 4.01-4.01 4.01s-4.01-1.8-4.01-4.01" stroke="#293330" stroke-linecap="round" stroke-miterlimit="10" stroke-width="2.1"/><path d="m60.4201 53.39c0-1.78-2.31-3.23-5.16-3.23s-5.16 1.44-5.16 3.23 2.31 3.23 5.16 3.23 5.16-1.44 5.16-3.23z" fill="#ffb0b0"/><path d="m33.9699 53.39c0-1.78-2.31-3.23-5.16-3.23s-5.16 1.44-5.16 3.23 2.31 3.23 5.16 3.23 5.16-1.44 5.16-3.23z" fill="#ffb0b0"/></g></svg>