<svg fill="none" height="133" viewBox="0 0 141 133" width="141" xmlns="http://www.w3.org/2000/svg" xmlns:xlink="http://www.w3.org/1999/xlink"><clipPath id="a"><path d="m0 0h140.53v132.75h-140.53z"/></clipPath><g clip-path="url(#a)"><path d="m135.81 32.13s-.3 0-.86.01c-.58 0-1.36.09-2.34.23-.95.17-2.06.42-3.22.81-1.17.37-2.39.88-3.66 1.44-2.54 1.13-5.21 2.61-7.93 4.19-2.74 1.56-5.55 3.21-8.32 4.75-1.39.77-2.76 1.52-4.12 2.18-1.36.68-2.69 1.28-3.97 1.84-1.28.53-2.5 1.04-3.67 1.4-1.16.38-2.25.7-3.24.92-.5.13-.97.23-1.41.3-.44.09-.87.16-1.25.2s-.78.11-1.06.12c-.27.01-.52.02-.75.03-1.33.06-2.09.1-2.09.1h-.07c-.7.04-1.41.16-2.12.37-.61.18-1.19.43-1.73.72l-5.8-1.48-10.25-2.62-9.88-2.52-9.4 12.17-14.81 35.71c-2.36 1.85-4.72 3.71-7.07 5.58l-11.75 9.35c-1.94 1.59-3.86 3.2-5.74999 4.86-1.89 1.66-3.76 3.36-5.61 5.08l-1.3 1.2c-.11.1-.2.23-.27.38-.58 1.36-1.06 2.78-1.44 4.27-.19.74-.33 1.52-.46 2.3-.05.4-.11.79-.1400002 1.21-.04.41-.06.82-.06 1.26 0 .35.0799999.72.2300002 1.07.61 1.39 2.24 2.03 3.63 1.41.4-.18.77-.37 1.12-.58.36-.2.69-.42 1.04-.63.65-.45 1.3-.89 1.9-1.38 1.2-.96 2.28999-1.99 3.27999-3.08l-1.55999 1.58c2.29999-1.04 4.59999-2.09 6.85999-3.19s4.5-2.24 6.72-3.41l13.19-7.18c4.39-2.4 8.79-4.8 13.13-7.28l6.51-3.72c.42-.25.84-.5 1.26-.74.89.31 1.83.52 2.81.59 2.92.2 5.85.36 8.77.54s5.85.33 8.78.47l8.59.42c-.1 2.16-.2 4.33-.29 6.5-.13 2.81-.21 5.63-.19 8.46.02 1.42.04 2.84.09 4.26.07 1.43.07 2.84.23 4.28l.23 2.16c.21 1.96 1.82 3.53 3.85 3.63 1.8.09 3.62.09 5.46 0 .46-.02.92-.07 1.38-.1s.92-.07 1.39-.13c.93-.1 1.87-.24 2.82-.46.59-.13 1.13-.47 1.51-1 .8-1.13.53-2.7-.61-3.5-.8-.56-1.61-1.05-2.43-1.51-.41-.24-.82-.46-1.23-.66-.31-.15-.62-.31-.93-.47.06-.17.11-.33.17-.5.46-1.35.89-2.7 1.31-4.05.84-2.71 1.57-5.43 2.26-8.16 1.41-5.45 2.76-10.92 4.11-16.38.07-.29.13-.59.17-.89.65-4.7-2.64-9.04-7.34-9.68l-1.3-.18c-1.78-.24-3.55-.5-5.33-.74l4.68-16.28-.66-1.23c.25-.09.49-.19.76-.29.57-.21 1.16-.47 1.77-.72.62-.25 1.26-.54 1.9-.85 1.31-.61 2.66-1.33 4.04-2.12 1.38-.8 2.79-1.65 4.2-2.56 2.8-1.84 5.58-3.94 8.25-5.99 2.67-2.06 5.21-4.14 7.55-5.98 2.36-1.82 4.52-3.39 6.34-4.51.9-.56 1.73-.99 2.42-1.3.7-.33 1.26-.52 1.71-.66.42-.11.76-.19.94-.2.2-.03.31-.05.31-.05l.83-.14c2.24-.37 3.93-2.33 3.89-4.66-.04-2.57-2.15-4.62-4.72-4.58z" fill="#27004b"/><g stroke-linecap="round" stroke-linejoin="round"><path d="m44.28 80.05.7 4.9 46.2-.7.7-3.5z" fill="#ffae00" stroke="#ffae00" stroke-width="1.05"/><path d="m78.9099 89.9101s.38 8.88-3.78 16.0499l-3.97-3.21s3.21-13.4099 7.18-17.5599z" fill="#c38500" stroke="#c38500" stroke-width="1.13"/><path d="m81.8198 79.7-3.01 12.24-4.22-1.17 3-12.25z" fill="#c38500" stroke="#c38500" stroke-width="1.05"/><path d="m80.1199 88.1801s4.91 10.01 5.1 15.1099l-3.02 4.34s-5.48-11.3299-4.34-17.7499l2.27-1.7z" fill="#c38500" stroke="#c38500" stroke-width="1.13"/></g><path d="m58.5599 64.56c.25 2.57.44 5.15.66 7.72l.55 7.73c.18 2.58.31 5.16.47 7.74l.44 7.75.42 7.75c.13 2.58.28 5.17.36 7.76.09 2.59.12 5.19.13 7.79-.04 2.61.07 5.19-.31 7.84l-.25 1.71c-.15 1.06-.92 1.88-1.89 2.15-1.22.34-2.47.62-3.73.89-.63.13-1.27.24-1.91.35-.64.1-1.29.19-1.95.25-1.11.11-2.09-.7-2.2-1.81-.06-.63.18-1.23.61-1.64.48-.46.97-.9 1.46-1.32.5-.41 1-.83 1.51-1.22 1.02-.78 2.04-1.55 3.09-2.26l-2.13 3.86c-1.04-2.47-1.59-5-2.28-7.51-.65-2.52-1.27-5.04-1.84-7.57s-1.08-5.06-1.61-7.6l-1.55-7.61-1.52-7.61c-.5-2.54-1.03-5.07-1.5-7.61l-1.42-7.62c-.44-2.55-.91-5.09-1.31-7.64-.77-4.87 2.56-9.44 7.43-10.21s9.44 2.56 10.21 7.43c.03.16.05.35.07.51z" fill="#27004b"/><path d="m38.54 47.29c1.22 16.49 18.98 28.61 34.58 27.46s31.38-15.76 30.16-32.24c-1.22-16.49-16.7-28.78-34.58-27.46s-31.38 15.76-30.17 32.24z" fill="#ffdbc5"/><path d="m66.6101.10001c-22.9401 1.69-37.9701 22.11999-38.5501 43.45999-.62 22.99 12.4601 36.29 44.2701 33.94 31.8099-2.35 43.1599-17.5 38.7899-40.08-3.56-18.38-21.5799-39.01999-44.5099-37.31999zm27.1899 52.34999-44.54 3.29c-4.98.37-8.91-4.16-7.85-9.04l.4901-2.27c2.8299-13.02 13.8799-22.63 27.1699-23.61 13.2901-.98 25.6301 6.9 30.34 19.36l.82 2.18c1.76 4.67-1.4599 9.72-6.44 10.09z" fill="#27004b"/><path d="m100.81 41.4-.8198-2.18c-4.71-12.46-17.06-20.34-30.34-19.36-13.29.98-24.34 10.59-27.17 23.61l-.49 2.27c-.28 1.27-.21 2.51.12 3.65.03-.21.05-.42.1-.64l.49-2.27c2.83-13.02 13.88-22.63 27.17-23.61s25.63 6.9 30.3398 19.36l.82 2.18c.08.21.13.41.19.62.16-1.18.04-2.42-.41-3.63z" fill="#453434"/><path d="m72.6301 74.45c-28.55 2.11-42-8.4-44.01-27.2.86 20.68 14.19 32.43 44.23 30.21 29.8399-2.2 41.6799-15.68 39.4199-35.98.78 18.61-11.31 30.87-39.6499 32.96z" fill="#453434"/><path d="m60.3 46.76c-.16-2.21-2.09-3.87-4.3-3.71s-3.87 2.09-3.71 4.3 2.09 3.87 4.3 3.7c2.21-.16 3.87-2.09 3.71-4.29z" fill="#293330"/><path d="m80.6801 45.2601c-.16-2.21 1.5-4.13 3.71-4.3 2.21-.16 4.13 1.49 4.3 3.71.16 2.21-1.5 4.13-3.71 4.29s-4.13-1.49-4.3-3.7z" fill="#293330"/><path d="m89.3301 53.6c-.13-1.78-2.54-3.05-5.38-2.84s-5.04 1.82-4.91 3.6 2.54 3.05 5.39 2.84c2.84-.21 5.04-1.82 4.91-3.6z" fill="#ffb0b0"/><path d="m62.94 55.55c-.13-1.78-2.54-3.05-5.39-2.84-2.84.21-5.04 1.82-4.91 3.6s2.54 3.05 5.39 2.84c2.84-.21 5.04-1.82 4.91-3.6z" fill="#ffb0b0"/></g></svg>