<svg width="133" height="163" viewBox="0 0 133 163" fill="none" xmlns="http://www.w3.org/2000/svg">
<mask id="mask0_94_788" style="mask-type:luminance" maskUnits="userSpaceOnUse" x="0" y="0" width="133" height="163">
<path d="M132.21 0H0V162.511H132.21V0Z" fill="white"/>
</mask>
<g mask="url(#mask0_94_788)">
<mask id="mask1_94_788" style="mask-type:luminance" maskUnits="userSpaceOnUse" x="0" y="0" width="133" height="163">
<path d="M132.21 0H0V162.511H132.21V0Z" fill="white"/>
</mask>
<g mask="url(#mask1_94_788)">
<path d="M131.767 105.747L125.2 96.529C125.017 96.2738 124.782 96.0599 124.511 95.9012C124.24 95.7425 123.938 95.6427 123.626 95.608L121.402 95.368C119.424 95.155 117.451 95.023 115.476 94.848L109.559 94.46C105.615 94.206 101.679 94.046 97.7419 93.893C93.8569 93.768 89.9729 93.645 86.0949 93.615L85.9299 93.162C86.0759 93.082 86.2089 93.014 86.3589 92.931C86.8999 92.607 87.4669 92.285 88.0499 91.91C88.6299 91.498 89.2339 91.101 89.8499 90.619C90.5015 90.1047 91.1219 89.5521 91.7079 88.964C92.0179 88.644 92.3309 88.327 92.6409 87.983L93.5409 86.82C94.9529 84.9177 95.842 82.6788 96.1199 80.326C96.386 77.6315 95.8024 74.9212 94.4509 72.575C93.2862 70.5809 91.7417 68.8346 89.9049 67.435C88.3604 66.2328 86.6692 65.2321 84.8719 64.457C83.2926 63.7713 81.6577 63.2216 79.9849 62.814C78.5205 62.4421 77.0308 62.1778 75.5279 62.023C74.2655 61.8911 72.9972 61.8244 71.7279 61.823C70.669 61.8149 69.6105 61.8636 68.5569 61.969L68.2129 62L67.7579 61.519L57.8759 64.04L47.6289 66.657L45.2029 67.276C44.0788 66.7916 42.8673 66.5426 41.6433 66.5445C40.4192 66.5464 39.2085 66.7991 38.0859 67.287L35.6269 68.356C35.1069 68.594 34.4809 68.866 33.9109 69.168L32.1859 70.152C31.5859 70.529 30.9699 70.96 30.3149 71.394C29.6799 71.86 29.0249 72.365 28.3599 72.904C26.9619 74.0854 25.6721 75.3893 24.5059 76.8C23.8719 77.526 23.3129 78.339 22.7139 79.139C22.1719 79.981 21.5919 80.818 21.1139 81.733C20.0877 83.5621 19.2593 85.4954 18.6429 87.5C17.9947 89.5366 17.5591 91.6348 17.3429 93.761C17.1181 95.8671 17.1245 97.9914 17.3619 100.096C17.5818 102.119 18.0176 104.112 18.6619 106.042C18.9359 106.985 19.3319 107.872 19.6759 108.742C20.0879 109.588 20.4429 110.436 20.9059 111.197L21.5599 112.335L22.2599 113.391C22.7005 114.054 23.1752 114.695 23.6819 115.309C24.1419 115.919 24.6409 116.445 25.0989 116.959C25.5569 117.473 26.0189 117.929 26.4589 118.349C27.3179 119.215 28.1499 119.849 28.8089 120.408C29.4799 120.946 30.0329 121.322 30.3989 121.598L30.9649 122.009C31.9365 122.714 33.1416 123.018 34.3311 122.859C35.5207 122.7 36.6037 122.09 37.3563 121.155C38.1089 120.221 38.4736 119.032 38.3749 117.836C38.2761 116.64 37.7216 115.528 36.8259 114.729L36.5339 114.469L36.1529 114.13C35.9109 113.903 35.5219 113.602 35.0889 113.168C34.6739 112.719 34.1239 112.213 33.6109 111.552C33.3181 111.221 33.045 110.873 32.7929 110.51C32.4991 110.127 32.2293 109.726 31.9849 109.31C31.7079 108.872 31.4564 108.418 31.2319 107.95L30.8719 107.224L30.5609 106.454C30.3239 105.946 30.1959 105.383 29.9999 104.839C29.8739 104.27 29.6869 103.711 29.6089 103.115C29.2033 100.681 29.3244 98.189 29.9639 95.806C30.2623 94.6199 30.7077 93.4757 31.2899 92.4C31.8225 91.3718 32.4685 90.4065 33.2159 89.522C33.6442 89.0032 34.1065 88.5134 34.5999 88.056L43.6829 126.817C43.9289 129.557 44.1956 132.297 44.4829 135.037C44.8949 138.737 45.3149 142.437 45.8289 146.144L46.5999 151.7C46.7829 152.807 46.9549 153.915 47.1339 155.022L42.6389 158.122C42.2141 158.412 41.8935 158.83 41.7244 159.315C41.5553 159.801 41.5465 160.328 41.6993 160.819C41.8522 161.31 42.1586 161.738 42.5735 162.042C42.9884 162.346 43.4898 162.508 44.0039 162.505L54.5709 162.511C55.3484 162.511 56.1022 162.243 56.7057 161.753C57.3092 161.263 57.7255 160.58 57.8849 159.819L58.3959 157.375C58.7809 155.531 59.0839 153.686 59.4309 151.841L60.3309 146.306C60.9309 142.615 61.4309 138.924 61.9259 135.232C62.3949 131.54 62.8639 127.849 63.2339 124.156L63.3339 123.167C64.1582 121.434 65.3692 119.913 66.8737 118.722C68.3782 117.531 70.1361 116.701 72.0119 116.296L80.3589 114.496C80.7879 114.434 81.2169 114.37 81.6469 114.311L87.4609 113.37C91.3379 112.743 95.2059 112.017 99.0749 111.291C102.942 110.539 106.807 109.778 110.666 108.925L116.454 107.638C118.181 107.211 119.911 106.813 121.637 106.367L128.91 109.341C129.389 109.538 129.92 109.574 130.422 109.443C130.924 109.312 131.369 109.021 131.691 108.615C132.013 108.208 132.194 107.708 132.206 107.19C132.219 106.671 132.063 106.163 131.761 105.741M83.6369 79.389C83.8799 79.574 83.9679 79.504 84.0979 79.6C84.2279 79.696 84.2509 80.1 84.0149 80.682C83.9382 80.826 83.8662 80.975 83.7989 81.129L83.4769 81.604C83.2406 81.9435 82.9824 82.2672 82.7039 82.573C82.5599 82.731 82.4039 82.885 82.2449 83.037L80.4509 78.109C81.076 78.237 81.689 78.4187 82.2829 78.652C82.7617 78.8434 83.2162 79.0908 83.6369 79.389Z" fill="#27004B"/>
<path d="M49.0051 108.4C49.0051 108.4 48.6261 117.277 52.7811 124.453L56.7481 121.243C56.7481 121.243 53.5371 107.833 49.5711 103.678L49.0051 108.4Z" fill="#F50000"/>
<path d="M49.0051 108.4C49.0051 108.4 48.6261 117.277 52.7811 124.453L56.7481 121.243C56.7481 121.243 53.5371 107.833 49.5711 103.678L49.0051 108.4Z" stroke="#F50000" stroke-width="1.133" stroke-linecap="round" stroke-linejoin="round"/>
<path d="M38.1001 102.98L40.9281 115.272L86.8681 94.164L83.9801 88.126L38.1001 102.98Z" fill="#FF4000"/>
<path d="M38.1001 102.98L40.9281 115.272L86.8681 94.164L83.9801 88.126L38.1001 102.98Z" stroke="#FF4000" stroke-width="1.05" stroke-linecap="round" stroke-linejoin="round"/>
<path d="M45.0439 100.291L48.0509 112.533L52.2749 111.359L49.2689 99.1169L45.0439 100.291Z" fill="#CF0000"/>
<path d="M45.0439 100.291L48.0509 112.533L52.2749 111.359L49.2689 99.1169L45.0439 100.291Z" stroke="#CF0000" stroke-width="1.05" stroke-linecap="round" stroke-linejoin="round"/>
<path d="M46.7379 108.777C46.7379 108.777 41.8279 118.787 41.6379 123.886L44.6599 128.23C44.6599 128.23 50.1379 116.9 48.9999 110.477L46.7379 108.777Z" fill="#CF0000"/>
<path d="M46.7379 108.777C46.7379 108.777 41.8279 118.787 41.6379 123.886L44.6599 128.23C44.6599 128.23 50.1379 116.9 48.9999 110.477L46.7379 108.777Z" stroke="#CF0000" stroke-width="1.133" stroke-linecap="round" stroke-linejoin="round"/>
<path d="M24.2271 45.6629C24.2201 62.1949 39.7271 75.5999 54.1491 75.6099C68.5711 75.6199 84.0881 62.2199 84.1001 45.6889C84.1018 41.758 83.3292 37.8651 81.8264 34.2327C80.3237 30.6003 78.1202 27.2994 75.3418 24.5186C69.7305 18.9025 62.118 15.7454 54.1791 15.7419C50.2481 15.7402 46.3552 16.5128 42.7228 18.0156C39.0904 19.5183 35.7895 21.7218 33.0087 24.5002C27.3926 30.1115 24.2355 37.724 24.2321 45.6629" fill="#FFDBC5"/>
<path d="M49.453 3.15361e-06C26.453 -0.00899685 9.95302 19.247 7.79202 40.491C5.46802 63.372 17.526 77.605 49.42 77.62C81.314 77.635 93.763 63.368 91.079 40.526C88.893 21.924 72.452 0.0100032 49.453 3.15361e-06ZM75.935 53.521L31.277 53.5C30.1148 53.4994 28.9687 53.2278 27.9299 52.7066C26.8911 52.1854 25.9882 51.4291 25.293 50.4977C24.5977 49.5664 24.1293 48.4857 23.925 47.3416C23.7207 46.1974 23.7861 45.0214 24.116 43.907L24.777 41.677C26.6189 35.4572 30.4229 29.9998 35.6211 26.1194C40.8194 22.239 47.1332 20.1439 53.62 20.1466C60.1068 20.1493 66.4188 22.2497 71.6139 26.1344C76.8089 30.0191 80.6083 35.4796 82.445 41.701L83.104 43.932C83.433 45.0467 83.4974 46.2228 83.2921 47.3667C83.0869 48.5107 82.6176 49.5909 81.9216 50.5217C81.2255 51.4525 80.322 52.208 79.2828 52.7284C78.2435 53.2487 77.0972 53.5194 75.935 53.519" fill="#27004B"/>
<g style="mix-blend-mode:soft-light">
<mask id="mask2_94_788" style="mask-type:luminance" maskUnits="userSpaceOnUse" x="24" y="20" width="60" height="28">
<path d="M83.937 20.276H24.334V47.714H83.937V20.276Z" fill="white"/>
</mask>
<g mask="url(#mask2_94_788)">
<path d="M83.6299 44.062L82.9709 41.831C81.1352 35.6084 77.336 30.1465 72.1407 26.2607C66.9453 22.375 60.6325 20.2738 54.1448 20.271C47.657 20.2682 41.3424 22.3639 36.1437 26.2451C30.945 30.1264 27.1411 35.585 25.2999 41.806L24.6389 44.037C24.2862 45.2231 24.2357 46.4785 24.4919 47.689C24.5349 47.479 24.5759 47.269 24.6379 47.059L25.2979 44.828C27.1402 38.6084 30.9445 33.1512 36.1429 29.2712C41.3412 25.3911 47.655 23.2961 54.1418 23.2989C60.6285 23.3017 66.9405 25.4022 72.1355 29.2868C77.3305 33.1714 81.13 38.6318 82.9669 44.853L83.6259 47.084C83.6879 47.294 83.7259 47.504 83.7709 47.714C84.0287 46.5038 83.9792 45.2482 83.6269 44.062" fill="#453434"/>
</g>
</g>
<path d="M61.5 29.5146H35L31 28.5146L37.5 22.0146C40.1667 20.848 47.6 18.4146 56 18.0146C64.4 17.6146 73.1667 25.5146 76.5 29.5146H64.5L63 26.0146L61.5 29.5146Z" fill="#6C4707"/>
<g style="mix-blend-mode:soft-light">
<mask id="mask3_94_788" style="mask-type:luminance" maskUnits="userSpaceOnUse" x="8" y="44" width="84" height="34">
<path d="M91.9569 44.214H8.0459V77.62H91.9569V44.214Z" fill="white"/>
</mask>
<g mask="url(#mask3_94_788)">
<path d="M49.9469 74.6C21.3189 74.586 8.68093 63.11 8.07193 44.214C7.39993 64.9 19.8209 77.607 49.9459 77.62C79.8679 77.633 92.6739 65.077 91.9269 44.663C91.3269 63.283 78.3599 74.61 49.9469 74.598" fill="#453434"/>
</g>
</g>
<path d="M44.111 44.436C44.1121 43.642 43.8777 42.8654 43.4374 42.2046C42.9971 41.5439 42.3707 41.0286 41.6374 40.724C40.9041 40.4194 40.0969 40.3392 39.318 40.4935C38.5391 40.6478 37.8235 41.0298 37.2618 41.591C36.7 42.1521 36.3174 42.8674 36.1623 43.6461C36.0072 44.4249 36.0866 45.2321 36.3904 45.9657C36.6943 46.6993 37.209 47.3263 37.8693 47.7672C38.5296 48.2082 39.3059 48.4434 40.1 48.443C41.1634 48.4433 42.1835 48.0214 42.9361 47.2701C43.6887 46.5188 44.1124 45.4994 44.114 44.436" fill="#293330"/>
<path d="M64.5449 44.444C64.5445 43.65 64.7796 42.8739 65.2205 42.2136C65.6613 41.5533 66.2881 41.0387 67.0215 40.7347C67.7549 40.4308 68.562 40.3512 69.3407 40.506C70.1194 40.6609 70.8346 41.0432 71.3959 41.6047C71.9572 42.1661 72.3394 42.8815 72.494 43.6602C72.6487 44.4389 72.5689 45.2459 72.2648 45.9793C71.9606 46.7126 71.4458 47.3393 70.7855 47.78C70.1251 48.2206 69.3488 48.4556 68.5549 48.455C67.4915 48.4542 66.4718 48.0313 65.7199 47.2792C64.9681 46.5272 64.5455 45.5074 64.5449 44.444Z" fill="#293330"/>
<path d="M72.5481 53.4C72.5481 51.619 70.2391 50.173 67.3881 50.171C64.5371 50.169 62.2251 51.614 62.2251 53.396C62.2251 55.178 64.5331 56.622 67.3851 56.623C70.2371 56.624 72.5471 55.181 72.5481 53.4Z" fill="#FFB0B0"/>
<path d="M46.0921 53.39C46.0921 51.609 43.7821 50.163 40.9291 50.161C38.0761 50.159 35.7671 51.604 35.7661 53.386C35.7651 55.168 38.0761 56.612 40.9261 56.613C43.7761 56.614 46.0911 55.171 46.0921 53.39Z" fill="#FFB0B0"/>
<path d="M38.0259 41.524C37.1129 41.492 35.7459 41.447 34.5619 41.424C34.4755 41.423 34.3908 41.4478 34.3186 41.4951C34.2464 41.5425 34.1898 41.6103 34.1563 41.6899C34.1227 41.7695 34.1136 41.8573 34.1301 41.942C34.1466 42.0268 34.1879 42.1048 34.2489 42.166L35.9779 43.903C36.058 43.9837 36.1666 44.0298 36.2803 44.0313C36.394 44.0327 36.5037 43.9896 36.5859 43.911L38.3089 42.27C38.3709 42.211 38.4142 42.1351 38.4333 42.0517C38.4524 41.9683 38.4464 41.8811 38.4162 41.8011C38.386 41.721 38.3329 41.6517 38.2635 41.6017C38.194 41.5517 38.1114 41.5233 38.0259 41.52" fill="#293330"/>
<path d="M38.0259 41.524C37.1129 41.492 35.7459 41.447 34.5619 41.424C34.4755 41.423 34.3908 41.4478 34.3186 41.4951C34.2464 41.5425 34.1898 41.6103 34.1563 41.6899C34.1227 41.7695 34.1136 41.8573 34.1301 41.942C34.1466 42.0268 34.1879 42.1048 34.2489 42.166L35.9779 43.903C36.058 43.9837 36.1666 44.0298 36.2803 44.0313C36.394 44.0327 36.5037 43.9896 36.5859 43.911L38.3089 42.27C38.3696 42.2108 38.4117 42.1352 38.43 42.0525C38.4483 41.9697 38.442 41.8834 38.412 41.8042C38.3819 41.725 38.3294 41.6562 38.2608 41.6064C38.1922 41.5567 38.1106 41.528 38.0259 41.524Z" stroke="#293330" stroke-miterlimit="10"/>
<path d="M73.9419 41.684C73.0289 41.652 71.6619 41.607 70.4779 41.584C70.3916 41.583 70.3069 41.6078 70.2346 41.6552C70.1624 41.7025 70.1059 41.7703 70.0723 41.8499C70.0387 41.9295 70.0296 42.0173 70.0461 42.1021C70.0626 42.1869 70.104 42.2648 70.1649 42.326L71.8939 44.063C71.974 44.1437 72.0826 44.1898 72.1963 44.1913C72.31 44.1928 72.4197 44.1496 72.5019 44.071L74.2249 42.43C74.2869 42.3711 74.3302 42.2952 74.3493 42.2118C74.3684 42.1283 74.3625 42.0412 74.3323 41.9611C74.3021 41.8811 74.2489 41.8117 74.1795 41.7617C74.1101 41.7117 74.0274 41.6833 73.9419 41.68" fill="#293330"/>
<path d="M73.9419 41.684C73.0289 41.652 71.6619 41.607 70.4779 41.584C70.3916 41.583 70.3069 41.6078 70.2346 41.6552C70.1624 41.7025 70.1059 41.7703 70.0723 41.8499C70.0387 41.9295 70.0296 42.0173 70.0461 42.1021C70.0626 42.1869 70.104 42.2648 70.1649 42.326L71.8939 44.063C71.974 44.1437 72.0826 44.1898 72.1963 44.1913C72.31 44.1928 72.4197 44.1496 72.5019 44.071L74.2249 42.43C74.2856 42.3709 74.3277 42.2953 74.346 42.2125C74.3643 42.1298 74.3581 42.0435 74.328 41.9642C74.2979 41.885 74.2454 41.8163 74.1768 41.7665C74.1082 41.7167 74.0266 41.688 73.9419 41.684Z" stroke="#293330" stroke-miterlimit="10"/>
<path d="M26.5 13.918C26.5 19.718 20.68 24.418 13.5 24.418C6.32 24.418 0.5 19.718 0.5 13.918C0.5 8.11797 6.32 3.41797 13.5 3.41797C20.68 3.41797 26.5 8.11797 26.5 13.918Z" fill="#27004B"/>
<path d="M13.5 24.418C20.6797 24.418 26.5 19.717 26.5 13.918C26.5 8.11898 20.6797 3.41797 13.5 3.41797C6.3203 3.41797 0.5 8.11898 0.5 13.918C0.5 19.717 6.3203 24.418 13.5 24.418Z" stroke="#293330" stroke-miterlimit="10"/>
<path d="M91.5 10.918C91.5 16.165 86.351 20.418 80 20.418C73.649 20.418 68.5 16.165 68.5 10.918C68.5 5.67097 73.649 1.41797 80 1.41797C86.351 1.41797 91.5 5.67097 91.5 10.918Z" fill="#27004B"/>
<path d="M80 20.418C86.3513 20.418 91.5 16.1647 91.5 10.918C91.5 5.67126 86.3513 1.41797 80 1.41797C73.6487 1.41797 68.5 5.67126 68.5 10.918C68.5 16.1647 73.6487 20.418 80 20.418Z" stroke="#293330" stroke-miterlimit="10"/>
<path d="M22.2399 6.16199L8.04492 23.44L12.3449 24.418L24.8389 8.78399L22.2399 6.16199Z" fill="#FF4000"/>
<path d="M22.2399 6.16199L8.04492 23.44L12.3449 24.418L24.8389 8.78399L22.2399 6.16199Z" stroke="#FF4000" stroke-width="1.05" stroke-linecap="round" stroke-linejoin="round"/>
<path d="M70.5001 4.41797L85.2761 19.353L82.3211 20.418L69.6311 6.16197L70.5001 4.41797Z" fill="#FF4000"/>
<path d="M70.5001 4.41797L85.2761 19.353L82.3211 20.418L69.6311 6.16197L70.5001 4.41797Z" stroke="#FF4000" stroke-width="1.05" stroke-linecap="round" stroke-linejoin="round"/>
</g>
</g>
</svg>
