<svg fill="none" height="163" viewBox="0 0 133 163" width="133" xmlns="http://www.w3.org/2000/svg" xmlns:xlink="http://www.w3.org/1999/xlink"><mask id="a" height="163" maskUnits="userSpaceOnUse" width="133" x="0" y="0"><path d="m132.21 0h-132.21v162.511h132.21z" fill="#fff"/></mask><mask id="b" height="163" maskUnits="userSpaceOnUse" width="133" x="0" y="0"><path d="m132.21 0h-132.21v162.511h132.21z" fill="#fff"/></mask><mask id="c" height="28" maskUnits="userSpaceOnUse" width="60" x="24" y="20"><path d="m83.937 20.276h-59.603v27.438h59.603z" fill="#fff"/></mask><mask id="d" height="34" maskUnits="userSpaceOnUse" width="84" x="8" y="44"><path d="m91.9569 44.214h-83.911v33.406h83.911z" fill="#fff"/></mask><g mask="url(#a)"><g mask="url(#b)"><path d="m131.767 105.747-6.567-9.218c-.183-.2552-.418-.4691-.689-.6278s-.573-.2585-.885-.2932l-2.224-.24c-1.978-.213-3.951-.345-5.926-.52l-5.917-.388c-3.944-.254-7.88-.414-11.8171-.567-3.885-.125-7.769-.248-11.647-.278l-.165-.453c.146-.08.279-.148.429-.231.541-.324 1.108-.646 1.691-1.021.58-.412 1.184-.809 1.8-1.291.6516-.5143 1.272-1.0669 1.858-1.655.31-.32.623-.637.933-.981l.9-1.163c1.412-1.9023 2.3011-4.1412 2.579-6.494.2661-2.6945-.3175-5.4048-1.669-7.751-1.1647-1.9941-2.7092-3.7404-4.546-5.14-1.5445-1.2022-3.2357-2.2029-5.033-2.978-1.5793-.6857-3.2142-1.2354-4.887-1.643-1.4644-.3719-2.9541-.6362-4.457-.791-1.2624-.1319-2.5307-.1986-3.8-.2-1.0589-.0081-2.1174.0406-3.171.146l-.344.031-.455-.481-9.882 2.521-10.247 2.617-2.426.619c-1.1241-.4844-2.3356-.7334-3.5596-.7315-1.2241.0019-2.4348.2546-3.5574.7425l-2.459 1.069c-.52.238-1.146.51-1.716.812l-1.725.984c-.6.377-1.216.808-1.871 1.242-.635.466-1.29.971-1.955 1.51-1.398 1.1814-2.6878 2.4853-3.854 3.896-.634.726-1.193 1.539-1.792 2.339-.542.842-1.122 1.679-1.6 2.594-1.0262 1.8291-1.8546 3.7624-2.471 5.767-.6482 2.0366-1.0838 4.1348-1.3 6.261-.2248 2.1061-.2184 4.2304.019 6.335.2199 2.023.6557 4.016 1.3 5.946.274.943.67 1.83 1.014 2.7.412.846.767 1.694 1.23 2.455l.654 1.138.7 1.056c.4406.663.9153 1.304 1.422 1.918.46.61.959 1.136 1.417 1.65s.92.97 1.36 1.39c.859.866 1.691 1.5 2.35 2.059.671.538 1.224.914 1.59 1.19l.566.411c.9716.705 2.1767 1.009 3.3662.85 1.1896-.159 2.2726-.769 3.0252-1.704.7526-.934 1.1173-2.123 1.0186-3.319-.0988-1.196-.6533-2.308-1.549-3.107l-.292-.26-.381-.339c-.242-.227-.631-.528-1.064-.962-.415-.449-.965-.955-1.478-1.616-.2928-.331-.5659-.679-.818-1.042-.2938-.383-.5636-.784-.808-1.2-.277-.438-.5285-.892-.753-1.36l-.36-.726-.311-.77c-.237-.508-.365-1.071-.561-1.615-.126-.569-.313-1.128-.391-1.724-.4056-2.434-.2845-4.926.355-7.309.2984-1.1861.7438-2.3303 1.326-3.406.5326-1.0282 1.1786-1.9935 1.926-2.878.4283-.5188.8906-1.0086 1.384-1.466l9.083 38.761c.246 2.74.5127 5.48.8 8.22.412 3.7.832 7.4 1.346 11.107l.771 5.556c.183 1.107.355 2.215.534 3.322l-4.495 3.1c-.4248.29-.7454.708-.9145 1.193-.1691.486-.1779 1.013-.0251 1.504.1529.491.4593.919.8742 1.223s.9163.466 1.4304.463l10.567.006c.7775 0 1.5313-.268 2.1348-.758s1.0198-1.173 1.1792-1.934l.511-2.444c.385-1.844.688-3.689 1.035-5.534l.9-5.535c.6-3.691 1.1-7.382 1.595-11.074.469-3.692.938-7.383 1.308-11.076l.1-.989c.8243-1.733 2.0353-3.254 3.5398-4.445s3.2624-2.021 5.1382-2.426l8.347-1.8c.429-.062.858-.126 1.288-.185l5.814-.941c3.877-.627 7.745-1.353 11.614-2.079 3.8671-.752 7.7321-1.513 11.5911-2.366l5.788-1.287c1.727-.427 3.457-.825 5.183-1.271l7.273 2.974c.479.197 1.01.233 1.512.102s.947-.422 1.269-.828c.322-.407.503-.907.515-1.425.013-.519-.143-1.027-.445-1.449m-48.1241-26.352c.243.185.331.115.461.211s.153.5-.083 1.082c-.0767.144-.1487.293-.216.447l-.322.475c-.2363.3395-.4945.6632-.773.969-.144.158-.3.312-.459.464l-1.794-4.928c.6251.128 1.2381.3097 1.832.543.4788.1914.9333.4388 1.354.737z" fill="#27004b"/><path d="m49.0051 108.4s-.379 8.877 3.776 16.053l3.967-3.21s-3.211-13.41-7.177-17.565z" fill="#f50000"/><path d="m49.0051 108.4s-.379 8.877 3.776 16.053l3.967-3.21s-3.211-13.41-7.177-17.565z" stroke="#f50000" stroke-linecap="round" stroke-linejoin="round" stroke-width="1.133"/><path d="m38.1001 102.98 2.828 12.292 45.94-21.108-2.888-6.038z" fill="#ff4000"/><path d="m38.1001 102.98 2.828 12.292 45.94-21.108-2.888-6.038z" stroke="#ff4000" stroke-linecap="round" stroke-linejoin="round" stroke-width="1.05"/><path d="m45.0439 100.291 3.007 12.242 4.224-1.174-3.006-12.2421z" fill="#cf0000"/><path d="m45.0439 100.291 3.007 12.242 4.224-1.174-3.006-12.2421z" stroke="#cf0000" stroke-linecap="round" stroke-linejoin="round" stroke-width="1.05"/><path d="m46.7379 108.777s-4.91 10.01-5.1 15.109l3.022 4.344s5.478-11.33 4.34-17.753z" fill="#cf0000"/><path d="m46.7379 108.777s-4.91 10.01-5.1 15.109l3.022 4.344s5.478-11.33 4.34-17.753z" stroke="#cf0000" stroke-linecap="round" stroke-linejoin="round" stroke-width="1.133"/><path d="m24.2271 45.6629c-.007 16.532 15.5 29.937 29.922 29.947s29.939-13.39 29.951-29.921c.0017-3.9309-.7709-7.8238-2.2737-11.4562-1.5027-3.6324-3.7062-6.9333-6.4846-9.7141-5.6113-5.6161-13.2238-8.7732-21.1627-8.7767-3.931-.0017-7.8239.7709-11.4563 2.2737-3.6324 1.5027-6.9333 3.7062-9.7141 6.4846-5.6161 5.6113-8.7732 13.2238-8.7766 21.1627" fill="#ffdbc5"/><path d="m49.453.00000315c-23-.009-39.49998 19.24699685-41.66098 40.49099685-2.324 22.881 9.73398 37.114 41.62798 37.129s44.343-14.252 41.659-37.094c-2.186-18.602-18.627-40.5159968-41.626-40.52599685zm26.482 53.52099685-44.658-.021c-1.1622-.0006-2.3083-.2722-3.3471-.7934s-1.9417-1.2775-2.6369-2.2089c-.6953-.9313-1.1637-2.012-1.368-3.1561-.2043-1.1442-.1389-2.3202.191-3.4346l.661-2.23c1.8419-6.2198 5.6459-11.6772 10.8441-15.5576 5.1983-3.8804 11.5121-5.9755 17.9989-5.9728s12.7988 2.1031 17.9939 5.9878c5.195 3.8847 8.9944 9.3452 10.8311 15.5666l.659 2.231c.329 1.1147.3934 2.2908.1881 3.4347-.2052 1.144-.6745 2.2242-1.3705 3.155-.6961.9308-1.5996 1.6863-2.6388 2.2067-1.0393.5203-2.1856.791-3.3478.7906" fill="#27004b"/><g mask="url(#c)"><path d="m83.6299 44.062-.659-2.231c-1.8357-6.2226-5.6349-11.6845-10.8302-15.5703-5.1954-3.8857-11.5082-5.9869-17.9959-5.9897-6.4878-.0028-12.8024 2.0929-18.0011 5.9741-5.1987 3.8813-9.0026 9.3399-10.8438 15.5609l-.661 2.231c-.3527 1.1861-.4032 2.4415-.147 3.652.043-.21.084-.42.146-.63l.66-2.231c1.8423-6.2196 5.6466-11.6768 10.845-15.5568 5.1983-3.8801 11.5121-5.9751 17.9989-5.9723 6.4867.0028 12.7987 2.1033 17.9937 5.9879s8.9945 9.345 10.8314 15.5662l.659 2.231c.062.21.1.42.145.63.2578-1.2102.2083-2.4658-.144-3.652" fill="#453434"/></g><path d="m61.5 29.5146h-26.5l-4-1 6.5-6.5c2.6667-1.1666 10.1-3.6 18.5-4s17.1667 7.5 20.5 11.5h-12l-1.5-3.5z" fill="#6c4707"/><g mask="url(#d)"><path d="m49.9469 74.6c-28.628-.014-41.26597-11.49-41.87497-30.386-.672 20.686 11.74897 33.393 41.87397 33.406 29.922.013 42.728-12.543 41.981-32.957-.6 18.62-13.567 29.947-41.98 29.935" fill="#453434"/></g><path d="m44.111 44.436c.0011-.794-.2333-1.5706-.6736-2.2314-.4403-.6607-1.0667-1.176-1.8-1.4806s-1.5405-.3848-2.3194-.2305-1.4945.5363-2.0562 1.0975c-.5618.5611-.9444 1.2764-1.0995 2.0551-.1551.7788-.0757 1.586.2281 2.3196.3039.7336.8186 1.3606 1.4789 1.8015.6603.441 1.4366.6762 2.2307.6758 1.0634.0003 2.0835-.4216 2.8361-1.1729s1.1763-1.7707 1.1779-2.8341" fill="#293330"/><path d="m64.5449 44.444c-.0004-.794.2347-1.5701.6756-2.2304.4408-.6603 1.0676-1.1749 1.801-1.4789.7334-.3039 1.5405-.3835 2.3192-.2287.7787.1549 1.4939.5372 2.0552 1.0987.5613.5614.9435 1.2768 1.0981 2.0555.1547.7787.0749 1.5857-.2292 2.3191-.3042.7333-.819 1.36-1.4793 1.8007-.6604.4406-1.4367.6756-2.2306.675-1.0634-.0008-2.0831-.4237-2.835-1.1758-.7518-.752-1.1744-1.7718-1.175-2.8352z" fill="#293330"/><path d="m72.5481 53.4c0-1.781-2.309-3.227-5.16-3.229s-5.163 1.443-5.163 3.225 2.308 3.226 5.16 3.227 5.162-1.442 5.163-3.223z" fill="#ffb0b0"/><path d="m46.0921 53.39c0-1.781-2.31-3.227-5.163-3.229s-5.162 1.443-5.163 3.225 2.31 3.226 5.16 3.227 5.165-1.442 5.166-3.223z" fill="#ffb0b0"/><path d="m38.0259 41.524c-.913-.032-2.28-.077-3.464-.1-.0864-.001-.1711.0238-.2433.0711-.0722.0474-.1288.1152-.1623.1948-.0336.0796-.0427.1674-.0262.2521.0165.0848.0578.1628.1188.224l1.729 1.737c.0801.0807.1887.1268.3024.1283.1137.0014.2234-.0417.3056-.1203l1.723-1.641c.062-.059.1053-.1349.1244-.2183s.0131-.1706-.0171-.2506c-.0302-.0801-.0833-.1494-.1527-.1994-.0695-.05-.1521-.0784-.2376-.0817" fill="#293330"/><path d="m38.0259 41.524c-.913-.032-2.28-.077-3.464-.1-.0864-.001-.1711.0238-.2433.0711-.0722.0474-.1288.1152-.1623.1948-.0336.0796-.0427.1674-.0262.2521.0165.0848.0578.1628.1188.224l1.729 1.737c.0801.0807.1887.1268.3024.1283.1137.0014.2234-.0417.3056-.1203l1.723-1.641c.0607-.0592.1028-.1348.1211-.2175.0183-.0828.012-.1691-.018-.2483-.0301-.0792-.0826-.148-.1512-.1978-.0686-.0497-.1502-.0784-.2349-.0824z" stroke="#293330" stroke-miterlimit="10"/><path d="m73.9419 41.684c-.913-.032-2.28-.077-3.464-.1-.0863-.001-.171.0238-.2433.0712-.0722.0473-.1287.1151-.1623.1947s-.0427.1674-.0262.2522.0579.1627.1188.2239l1.729 1.737c.0801.0807.1887.1268.3024.1283s.2234-.0417.3056-.1203l1.723-1.641c.062-.0589.1053-.1348.1244-.2182.0191-.0835.0132-.1706-.017-.2507-.0302-.08-.0834-.1494-.1528-.1994s-.1521-.0784-.2376-.0817" fill="#293330"/><path d="m73.9419 41.684c-.913-.032-2.28-.077-3.464-.1-.0863-.001-.171.0238-.2433.0712-.0722.0473-.1287.1151-.1623.1947s-.0427.1674-.0262.2522.0579.1627.1188.2239l1.729 1.737c.0801.0807.1887.1268.3024.1283s.2234-.0417.3056-.1203l1.723-1.641c.0607-.0591.1028-.1347.1211-.2175.0183-.0827.0121-.169-.018-.2483-.0301-.0792-.0826-.1479-.1512-.1977s-.1502-.0785-.2349-.0825z" stroke="#293330" stroke-miterlimit="10"/><path d="m26.5 13.918c0 5.8-5.82 10.5-13 10.5s-13-4.7-13-10.5c0-5.80003 5.82-10.50003 13-10.50003s13 4.7 13 10.50003z" fill="#27004b"/><path d="m13.5 24.418c7.1797 0 13-4.701 13-10.5 0-5.79902-5.8203-10.50003-13-10.50003s-13 4.70101-13 10.50003c0 5.799 5.8203 10.5 13 10.5z" stroke="#293330" stroke-miterlimit="10"/><path d="m91.5 10.918c0 5.247-5.149 9.5-11.5 9.5s-11.5-4.253-11.5-9.5c0-5.24703 5.149-9.50003 11.5-9.50003s11.5 4.253 11.5 9.50003z" fill="#27004b"/><path d="m80 20.418c6.3513 0 11.5-4.2533 11.5-9.5 0-5.24674-5.1487-9.50003-11.5-9.50003s-11.5 4.25329-11.5 9.50003c0 5.2467 5.1487 9.5 11.5 9.5z" stroke="#293330" stroke-miterlimit="10"/><path d="m22.2399 6.16199-14.19498 17.27801 4.29998.978 12.494-15.63401z" fill="#ff4000"/><path d="m22.2399 6.16199-14.19498 17.27801 4.29998.978 12.494-15.63401z" stroke="#ff4000" stroke-linecap="round" stroke-linejoin="round" stroke-width="1.05"/><path d="m70.5001 4.41797 14.776 14.93503-2.955 1.065-12.69-14.25603z" fill="#ff4000"/><path d="m70.5001 4.41797 14.776 14.93503-2.955 1.065-12.69-14.25603z" stroke="#ff4000" stroke-linecap="round" stroke-linejoin="round" stroke-width="1.05"/></g></g></svg>