<svg fill="none" height="146" viewBox="0 0 117 146" width="117" xmlns="http://www.w3.org/2000/svg" xmlns:xlink="http://www.w3.org/1999/xlink"><clipPath id="a"><path d="m0 0h116.21v145.5h-116.21z"/></clipPath><g clip-path="url(#a)"><path d="m113.556 80.59c-.75-2.02-1.93-3.76-3.14-5.18-1.23-1.42-2.52-2.5-3.75-3.43-1.24-.94-2.43-1.64-3.55-2.32-1.11-.65-2.16-1.21-3.11-1.69-.96-.48-1.83-.88-2.6-1.24-.78-.36-1.5-.66-2.07-.91-.98-.44-1.53-.69-1.53-.69l-.04-.02c-.87-.39-1.82-.64-2.82-.74-1.58-.15-3.1.11-4.47.7l-1.99-.51-10.25-2.62-9.88-2.52-2.61 2.76c-.28.05-.59.1-.94.16-1.5.23-3.6.59-6.18.94-2.58.36-5.59.8-8.82 1.17-3.24.39-6.7.84-10.16 1.21-6.96.79-13.93 1.58-19.15 2.17-.68.08-1.34.17-1.96.24-.66.1-1.29.21-1.88.3-.43.08-.83.17-1.22.25-1.58996-1.02-3.68996-1.03-5.30996.15-2.09 1.53-2.54 4.47-1.01 6.56 0 0 .14.19.39.53.17.21.27.41.86 1.01l.24.23c.08.07.26.24.4.34.15.11.31.25.47.36.21.13.46.31.71.42.51.23 1.02999.46 1.58.54.24996.03.39996.28.60996.28h.3l.24-.25c1.08-.09 1.32-.39 1.75-.43.39-.04.78-.07 1.22-.09.47 0 .96-.02 1.48-.03h1.77c2.57 0 5.59 0 8.84.06 3.25.08 6.73.17 10.2.25 3.48.08 6.96.25 10.24.36 1.42.05 2.8.1 4.12.16l-4.62 12.7h-.42c-4.12.04-8.24.17-12.36.3-4.13.16-8.25.32-12.38.58l-6.2.39c-2.07.18-4.14.31-6.20996.52l-2.24.23c-.47.05-.92.31-1.19.73l-4.530005 6.97c-.3399997.54-.4799997 1.21-.3199997 1.88.3099997 1.29 1.6200047 2.09 2.9100047 1.77l8.06996-1.96-3.42996.96c2.02.5 4.04996.91 6.07996 1.37l6.09 1.24c4.06.82 8.12 1.56 12.19 2.28 4.07.7 8.13 1.4 12.21 2l6.11.9c1.79.23 3.59.48 5.38.69l5.54 1c3.4.61 6.39 2.59 8.3 5.47l.4.6c.16.47.35.94.58 1.39.45.89.97 1.74 1.46 2.62l1.58 2.57c1.06 1.71 2.2 3.38 3.35 5.06.88 1.24 1.77 2.48 2.7 3.71l-11.63 1.91-.88.14c-.78.13-1.46.68-1.71 1.49l-1.17 3.77c-.28.9 0 1.92.77 2.56 1.02.84 2.53.69 3.37-.33l1.1-1.34 20.46 1.33c.14 0 .28.01.42 0 2.58-.06 4.61-2.2 4.55-4.78l-.07-2.89c-.03-1.06-.13-2.09-.19-3.13l-.32-3.08c-.22-2.05-.52-4.07-.83-6.08-.34-2-.68-4-1.11-5.97l-.65-2.95c-.2-.76-.39-1.53-.6-2.29l6.94-29.63c.38.12.74.2501 1.08.39.68.27 1.32.56 1.77.82.47.26.76.48.98.68.22.2001.42.45.54.93.12.47.14 1.14.04 1.88-.09.73-.33 1.54-.59 2.32-.28.79-.59 1.55-.92 2.27-.66 1.43-1.39 2.62-1.88 3.46-.53.83-.83 1.3-.83 1.3l-.09.14c-1.25 1.96-.88 4.59.95 6.12 1.99 1.66 4.95 1.39 6.61-.6 0 0 .42-.5 1.14-1.37.72-.89 1.76-2.16 2.93-3.86.59-.84 1.21-1.8 1.83-2.89.61-1.11 1.23-2.32 1.74-3.77.53-1.43.98-3.08 1.11-5 .14-1.9-.12-4.08-.88-6.09zm-100.76-10.73s-.04-.04-.06-.06c.05.05.1.09.12.1l.07.07c.17.19-.04 0-.13-.11z" fill="#27004b"/><g stroke-linecap="round" stroke-linejoin="round"><path d="m83.106 106.3s.38 8.88-3.78 16.05l-3.97-3.21s3.21-13.41 7.18-17.56z" fill="#1505c6" stroke="#1505c6" stroke-width="1.13"/><path d="m94.0161 100.88-2.83 12.29-45.94-21.11 2.88-6.03z" fill="#1500ff" stroke="#1500ff" stroke-width="1.05"/><path d="m87.0659 98.19-3.01 12.24-4.22-1.17 3.01-12.24z" fill="#1505c6" stroke="#1505c6" stroke-width="1.05"/><path d="m85.376 106.68s4.91 10.01 5.1 15.11l-3.02 4.34s-5.48-11.33-4.34-17.75l2.27-1.7z" fill="#1505c6" stroke="#1505c6" stroke-width="1.13"/></g><path d="m99.486 45.66c0 16.53-15.5 29.94-29.92 29.95-14.42 0-29.94-13.39-29.95-29.92 0-16.53 13.39-29.94 29.92-29.95 16.53 0 29.94 13.39 29.95 29.92z" fill="#ffdbc5"/><path d="m32.636 40.53c-2.68 22.84 9.76 37.11 41.66 37.09 31.89-.01 43.95-14.25 41.63-37.13-2.16-21.24-18.67-40.49-41.67-40.49s-39.44 21.92-41.63 40.53zm7.97 3.4.66-2.23c3.77-12.78 15.5-21.55 28.83-21.56 13.32 0 25.06 8.76 28.84 21.53l.66 2.23c1.42 4.79-2.17 9.59-7.16 9.59l-44.66.02c-4.99 0-8.58-4.8-7.17-9.59z" fill="#27004b"/><path d="m40.0759 44.06.66-2.23c3.77-12.78 15.5-21.55 28.83-21.56s25.06 8.76 28.84 21.53l.66 2.23c.37 1.25.39 2.49.15 3.65-.04-.21-.08-.42-.15-.63l-.66-2.23c-3.78-12.77-15.52-21.54-28.84-21.53-13.32 0-25.05 8.78-28.83 21.56l-.66 2.23c-.06.21-.1.42-.15.63-.25-1.16-.22-2.41.14-3.65z" fill="#453434"/><path d="m73.7659 74.6c28.6301-.01 41.2701-11.49 41.8801-30.38.67 20.69-11.75 33.39-41.8701 33.41-29.92.01-42.73-12.54-41.98-32.96.6 18.62 13.57 29.95 41.98 29.94z" fill="#453434"/><path d="m79.5959 44.4401c0-2.22 1.8-4.01 4.01-4.01s4.01 1.79 4.01 4.01c0 2.21-1.8 4.01-4.01 4.01s-4.01-1.79-4.01-4.01z" fill="#293330"/><path d="m59.166 44.4401c0-2.22-1.8-4.01-4.01-4.01s-4.01 1.8-4.01 4.01 1.8 4.01 4.01 4.01 4.01-1.8 4.01-4.01z" fill="#293330"/><path d="m51.166 53.4c0-1.78 2.31-3.23 5.16-3.23s5.16 1.44 5.16 3.22-2.31 3.23-5.16 3.23-5.16-1.44-5.16-3.22z" fill="#ffb0b0"/><path d="m77.616 53.39c0-1.78 2.31-3.23 5.16-3.23s5.16 1.44 5.16 3.22-2.31 3.23-5.16 3.23-5.16-1.44-5.17-3.22z" fill="#ffb0b0"/></g></svg>