<svg fill="none" height="81" viewBox="0 0 273 81" width="273" xmlns="http://www.w3.org/2000/svg" xmlns:xlink="http://www.w3.org/1999/xlink"><mask id="a" height="81" maskUnits="userSpaceOnUse" width="273" x="0" y="0"><path d="m272.522 0h-272.522v80.678h272.522z" fill="#fff"/></mask><g fill="#27004b" mask="url(#a)"><path d="m271.766 36.545s.083 5.12-34.044 5.675c-1.455.023-3.19.041-5.145.053-4.357-1.756-9.4-4.706-11.143-5.415-2.517-1.025-4.734-2.3-7.185.419s-6 4.686-9.426 4.4-12.706-3.046-19.123-1.117c-1.284.3715-2.53.8637-3.722 1.47-7.04-.07-14.422-.152-22-.242-.381-.4777-.853-.8742-1.389-1.1662-.537-.292-1.126-.4735-1.734-.5338l-18.742.3c-3.339-3.472 2.012-10.845-2.175-14.882-1.819-1.753-4.854-4.387-7.707-6.807l1.069-2.028 3.262.339c.809-2.326 3.2-2.169 3.772-3.247.319-.606-.062-2.361-.456-3.78301l8.317.62001c.361-11.500008-14.4-10.166008-14.4-10.166008-11.173-2.678002-15.747 7.919998-15.747 7.919998l8.782.655.883 3.62501-.794 1.509.976.933c-1.662-1.381-2.8-2.309-2.8-2.309s-7.609 3.4-8.878 9.576c-.958 4.672.587 14.347 1.4 18.8-2.505-.0407-4.997-.0813-7.476-.122-2.099-1.3706-4.368-2.4589-6.751-3.237-9.449-3.283-23.465.244-28.582.453s-10.288-2.947-13.771-7.157-6.868-2.448-10.685-1.08-18.216 9.282-24.579 9.034c-3.383-.156-5.617-.306-6.432-.448-5.46313-.977-10.61736-3.2335-15.040968-6.585 0 0-12.026032 21.529 116.444968 23.28 175.77 2.4 155.021-18.736 155.021-18.736z"/><path d="m203.062 60.735c-10.771.678-21.555 1.147-32.346 1.273-10.791.142-21.586-.077-32.368-.541-5.39-.247-10.784-.464-16.171-.812-5.371-.325-10.813-.709-16.23-.87-10.8401-.356-21.6551-.423-32.4511-.623-10.7865-.0902-21.5591-.797-32.265-2.117-5.3498-.6667-10.6598-1.6211-15.907-2.859-5.2497-1.2691-10.4094-2.8853-15.44499-4.838 9.93839 4.3815 20.41569 7.4208 31.15599 9.038 10.7359 1.5838 21.5535 2.552 32.4 2.9 10.826.466 21.645.487 32.4201.967 5.395.2 10.74.625 16.161.991 2.7.2 5.406.358 8.112.5 2.7.159 5.411.3 8.12.369 10.83.389 21.672.528 32.509.308s21.672-.7 32.466-1.684c10.8-.9386 21.548-2.298 32.245-4.078 10.671-1.859 21.284-4.054 31.727-6.89-10.579 2.267-21.216 4.2-31.921 5.636-10.693 1.5-21.434 2.645-32.207 3.331"/><path d="m194.327 67.81c-9.313.586-18.636.991-27.965 1.1s-18.664-.066-27.987-.469c-4.659-.212-9.323-.4-13.98-.7-4.643-.281-9.349-.612-14.032-.753-9.373-.308-18.7237-.366-28.0567-.539-9.3256-.0783-18.6391-.6893-27.895-1.83-4.625-.5768-9.2157-1.402-13.752-2.472-4.5404-1.0968-9.0028-2.4939-13.358-4.182 8.5925 3.7885 17.651 6.4166 26.937 7.815 9.2808 1.3698 18.6324 2.2071 28.009 2.508 9.36.4 18.7137.422 28.0307.836 4.664.177 9.285.541 13.972.858 2.336.172 4.673.308 7.014.43 2.337.137 4.678.256 7.02.319 9.363.336 18.736.458 28.106.266s18.738-.6 28.071-1.456c9.334-.8107 18.626-1.9857 27.876-3.525 9.227-1.608 18.4-3.506 27.432-5.957-9.146 1.961-18.342 3.633-27.6 4.873-9.246 1.292-18.533 2.286-27.846 2.879"/><path d="m181.94 78.129c-7.245.456-14.5.772-21.758.856s-14.519-.05-21.773-.364c-3.625-.166-7.253-.311-10.876-.545-3.614-.219-7.274-.477-10.918-.586-7.292-.241-14.566-.284-21.8278-.42-7.2546-.0594-14.4998-.5345-21.7-1.423-3.5986-.4485-7.1705-1.0904-10.7-1.923-3.5331-.8544-7.0054-1.9428-10.394-3.258 6.6854 2.947 13.7332 4.9913 20.958 6.079 7.2208 1.0656 14.4967 1.717 21.792 1.951 7.2808.312 14.5578.328 21.8078.65 3.628.137 7.224.422 10.87.667 1.819.134 3.637.241 5.457.336s3.639.2 5.461.247c7.285.261 14.579.356 21.869.208s14.577-.472 21.837-1.134c7.267-.6313 14.496-1.5453 21.689-2.742 7.179-1.251 14.318-2.728 21.342-4.634-7.115 1.525-14.271 2.825-21.472 3.79-7.193 1-14.418 1.778-21.664 2.24"/></g></svg>