<svg fill="none" height="262" viewBox="0 0 1922 262" width="1922" xmlns="http://www.w3.org/2000/svg" xmlns:xlink="http://www.w3.org/1999/xlink"><clipPath id="a"><path d="m-259 0h2181v271h-2181z"/></clipPath><clipPath id="b"><path d="m0 0h159.189v89.168h-159.189z" transform="matrix(-1 0 0 1 1585.49 38.0823)"/></clipPath><clipPath id="c"><path d="m740.172 82.6663h105.79v132.823h-105.79z"/></clipPath><g clip-path="url(#a)"><path d="m1911.93 262.8c-83.09-7.661-860.55 21.461-941.034 0h-111.121c-1.122-.243-2.211-.487-3.3-.73-177.696-47.818-347.802-129.622-505.237-246.7188-9.867-11.73404-29.435-13.98358-50.851-12.52442-21.383-1.45916-40.984.82077-50.85 12.52442-157.402 117.0968-246.50211 180.6198-424.198 228.4678-1.089.243-83.25 18.738-84.339 18.981l64.188.152c-80.482 21.461 257.3919-7.661 174.3022 0h371.7478l323.445-.152z" fill="#1a0233"/><path d="m175.126 87.123c29.269-36.7221 57.153-31.2199 40.786 18.422 51.312-4.347-8.25-24.1978 91.075-46.5716 10.328-21.4009 56.592 33.3478 87.379 48.0006 19.634 4.772-32.041-31.4331-3.86-29.8219 35.242 2.9183 51.18 41.7679 51.972 3.2527-8.151-6.7486-15.773-13.2236-22.901-19.3946-23.033-15.3212-45.834-31.3111-68.339-48.0914-9.867-11.73402-29.435-13.98355-50.851-12.524394-21.383-1.459156-40.984.820774-50.85 12.524394-22.604 16.8107-45.472 32.8918-68.604 48.2434-6.236 5.4414-12.77 11.126-19.7 17.0539 21.284-16.7195-9.272 26.6899 13.893 8.8765z" fill="#b99ed4"/><g fill="#1a0233"><path d="m1922 231.054s-72.23-7.952-88.95-9.571c-16.73-1.618-23.23-3.496-30.04-1.796-7.99 1.996-8.32 7.321-58.4 6.511-50.08-.809-60.82-12.942-106.53 2.93-29.26 10.159-85.27 5.934-85.27 5.934l-33.23-6.204s-17.36-8.27-39.99-7.731c-22.62.54-24.58 1.554-32.96 1.948-8.39.394-17.75.685-22.05 0-4.29-.685-47.59.145-59.88 0-12.29-.146-19.7-3.205-33.55-3.922-13.85-.718-23.22-1.079-41.94-1.441-18.73-.361-29.46.54-37.85-.717-8.38-1.257-547.459-3.777-547.459-3.777v49.451l1218.099-.001v-31.609z"/><path d="m1721.38 160.686v-17.178h-11.95c-8.11 0-12.06-8.049-12.06-8.049 10.78-1.176 19.96-3.863 27.7-7.278v-20.366h-10.76c-7.33 0-10.9-7.278-10.9-7.278 9.81-1.0681 18.16-3.5228 25.19-6.6465v-21.2994h-9.4c-6.55 0-9.74-6.5009-9.74-6.5009 30.06-3.2747 44.78-21.1105 49.21-27.633l1.49-31.02654 1.68 31.29624c4.64 6.7275 19.36 24.1317 49.02 27.3633 0 0-3.19 6.5009-9.73 6.5009h-9.41v21.2994c7.03 3.1237 15.38 5.5784 25.19 6.6465 0 0-3.57 7.278-10.9 7.278h-10.76v20.366c7.74 3.42 16.93 6.107 27.7 7.278 0 0-3.95 8.049-12.06 8.049h-11.95v17.178c8.82 3.96 19.3 7.083 31.67 8.432 0 0-4.43 9.031-13.53 9.031h-113.84c-9.09 0-13.52-9.031-13.52-9.031 12.36-1.349 22.85-4.472 31.67-8.432z"/><path d="m1802.14 173.968h10.74v54.791h-10.74z"/><path d="m1782.99 167.467h6.71v63.456h-6.71z"/><path d="m1710.64 173.968h10.74v54.791h-10.74z"/><path d="m1734.14 167.467h6.71v63.456h-6.71z"/><path d="m1710.27 222.458s-.95-7.617.37-10.488c0 0-1.91 3.674-1.61 9.577z"/><path d="m1709 221.886s.28-10.854-3.05-15.073c0 0 1.06 2.595 1.36 5.157.29 2.563.17 9.647.17 9.647l1.51.269z"/><path d="m1708.04 221.886s-.7-7.687-3.51-10.757c0 0 2.3 4.618 1.93 10.757z"/><path d="m1891.57 227.244s-.51-6.205.36-10.521c0 0-1.09 5.46-1.53 10.521z"/><path d="m1889.89 227.244s.66-11.578.92-12.7c.27-1.122-.21.113-.46 2.179-.24 2.067-1.24 10.521-1.24 10.521z"/><path d="m1888.57 226.952s-.31-15.893-1.02-16.789c0 0 .27 6.183.24 8.249-.02 2.066-.24 8.427-.24 8.427z"/><path d="m1887.2 226.952s-.8-8.184-3.51-10.342c0 0 2.68 3.663 2.68 10.159l.83.178z"/><path d="m1823.71 219.895s-.51-6.204.36-10.52c0 0-1.09 5.46-1.53 10.52z"/><path d="m1822.03 219.895s.66-11.577.92-12.699c.27-1.122-.21.113-.46 2.179-.24 2.067-1.24 10.52-1.24 10.52z"/><path d="m1820.71 219.604s-.31-15.893-1.02-16.789c0 0 .27 6.183.24 8.249-.02 2.066-.24 8.427-.24 8.427z"/><path d="m1819.34 219.604s-.8-8.184-3.51-10.342c0 0 2.68 3.663 2.68 10.159l.83.178z"/><path d="m1759.8 226.434s-.52-6.204.36-10.52c0 0-1.1 5.46-1.53 10.52z"/><path d="m1758.11 226.434s.66-11.577.93-12.699c.26-1.123-.22.113-.46 2.179s-1.24 10.52-1.24 10.52z"/><path d="m1756.8 226.143s-.32-15.894-1.03-16.789c0 0 .27 6.182.25 8.249-.03 2.066-.25 8.427-.25 8.427z"/><path d="m1755.43 226.143s-.8-8.184-3.51-10.342c0 0 2.68 3.663 2.68 10.159l.83.178z"/><path d="m1831.9 155.701s.92-.702 1.25-.982c.33-.281.4-.248.66-.389.26-.14.49.135.49.135l1.21-.399s.22-.415.29-1.807c.08-1.392.03-.599.44-.847.4-.248.25-.486.25-.486s1 .016 1.49-.027c.48-.043.52-.113.89-.118.36-.006.48.129.48.129s.28 1.057.41 1.71c.12.648 0 0 .26.545.27.545 0 0 .15.232s.61.27.98.432c.25.111.55.129.9.054.52-.114 0 0 .17-.691 0 0-.31-.475-.5-.987-.2-.513 0 0-.34-.577-.35-.578.14-.276.25-.486.1-.205 1.02-1.084 1.56-1.775.54-.696 3.5.011 4.26-.761.77-.766 1.9.243 2.42.13s2.27.237 3.62.658c.36.113.52.162.58.183.27 0 .63-.086 1.06-.14.59-.081.18-.345.18-.345s.23-1.516-.22-1.883 0 0-.79-.604c-.8-.604.35-.691.46-.901.11-.205.32-.621 1.69-1.3 1.36-.675 1.38.183 2.05.307.67.13.3.135.64.194.34.065 2.14-.927 2.43-1.478.28-.555.83-.906 1.09-1.219s1.02-.906 1.35-1.36c.33-.453 2.57-.145 3.42-.194.85-.048 1.35.248 1.35.248l1.99 1.133s.57.507.76 1.015c.2.507 1.9.615 2.24.134.33-.48 1.42-1.499 2-2.265.58-.761 1.22-.4 3.19.215 1.98.615.69.13 1.07.47.37.334 1.07 1.321 1.07 1.321s.16.578.35.745c.19.162 2.87 2.12 3.16 2.082.3-.037 1.38-.161 1.79.108.41.27.38 2.466.27 2.671-.1.21-1.76 1.262-2.23 1.651-.48.388 1.31.836 1.73.933.41.097-.32-1.333-.32-1.333s1.31-1.294 2.55-.83c1.23.458 1.47 4.639 1.44 5.039-.02.399 1.77 1.213 1.92 1.111.14-.108 2.16.442 2.4 1.057s.25 1.301.15 2.023c-.1.723 1.3 1.592 1.3 1.592s1.46.728 2.44 1.505c.99.772-1.14 5.455-1.14 5.455s4.1-2.277 6.04-.664c1.93 1.613-1.67 4.915-1.24 5.33.43.416-.81 3.965.78 5.174 1.59 1.208 1.98-2.503 3.08-4.348s3.5 3.927 4.41 4.839-2.94 3.55-.46 5.152c2.49 1.602-3.09 1.699-1.47 3.383 1.63 1.688-1.75 2.843-3.34 6.436-1.58 3.593-6.76-2.422-9.1-2.18-2.34.243-4.91-5.47-6.15-6.274-.29-.189-.48-.378-.65-.604-.17.075-.31.14-.41.194-.52.264-2.08.534-2.48.48-.41-.054-1.57.173-1.91.006-.35-.168-.81-.222-1.56-.168s-1.57.033-1.85.227c-.29.199-1.91.68-2.31.89-.19.097-.48.243-.74.372-.06.297-.13.605-.21.95-.93 3.841-1.78 2.411-2.7 2.838-.93.426-2.34.286-4.17 2.395-1.16 1.338-1.16-.475-2.08 0-.93.475-.93.378-.93.378s-1.38-.853-2.31 0c-.92.852-.69 0-.69 0l-.7.642c-.7.642 0 2.988 0 2.988l.23 1.495c.23 1.494 0 0 .23.734.23.733.7 1.186 1.16 1.715.46.534.7 2.239.93 3.518.23 1.278.46 1.704 2.54 3.992 2.09 2.287 0 2.622 0 2.622l2.78 5.33 1.62 2.131c1.62 2.131 2.54 1.068 3.7 2.255s3.24 1.376 5.55 2.574c2.32 1.197 5.32 4.985 5.32 4.985s-10.17 6.824-11.1 5.934-13.19-4.418-15.27-6.366 1.29-3.534.7-4.559c-.61-1.025.23-3.334.46-3.571.23-.243 1.16-2.401 1.16-2.401v-2.822c0-.555-.93-2.007-.93-2.007s-1.85-2.131-2.31-2.773 0-1.494.46-4.154c.46-2.665 0-.96 0-3.096 0-2.137-.46-1.069-2.54-3.318-2.09-2.25 0-2.228 0-4.149v-2.557s0-1.705.23-3.626c.23-1.92 1.38-1.068 1.38-1.068h4.63s2.55 0 4.4-.426 2.2-1.387 2.2-1.387l-1.05-1.386-.46-.642c-.46-.642-1.16-.852-2.08-1.705-.93-.852-.93-1.494-1.62-2.557-.7-1.068-.46-1.705-.7-2.347-.23-.642-1.85-1.494-3.01-2.347-.51-.383-1.12-.804-1.69-1.192-.44-.178-.44.022-.88-.032-.52-.06 0 0-1.77-.486-1.78-.485-1.15-.804-1.68-1.208-.53-.405-.57-.508-1.53-1.862s-.41-1.537-.41-1.537l-.72-1.085-1.34.265c-1.33.259 0 0-.21.243-.22.242-.03.41-.03.41s.08.377.27.884c.2.513.09.551-.31 1.139s0 0-.7.458c-.69.459-1.53-.421-2.87-.329s-1.19-1.629-1.27-2.174c-.09-.545 0 0-.1 0-.09 0 .05-.62-.22-.993-.27-.372-.57-.674-1.14-1.521-.58-.847-.95-.502-1.36-.594-.41-.097-.97-.086-.97-.086s-.96.086-2.61.421c-1.65.334-.4-.302-.83-.362-.43-.059-.55-.539-.78-.809s-.24-.787-.28-1.23c-.05-.442-.45-.199-.45-.199l-1.41.059s-3.52-.869-4.28-.987c-.77-.124-.59-2.255-.82-2.525-.22-.27-.24-.782-.29-1.743-.06-.96.22-.415.22-.415zm54.18 26.764c.29 0 1.16-.48 1.5-.48.16 0 .43-.043.68-.092-.23-.561-.54-1.305-1.08-2.363-.18.481-.46.534-.87 1.009-.4.48-.34.642-.52.901-.1.151-.21.631-.29 1.014h.58zm-17.93-8.421c1.85 1.494 0 0 2.08 2.557 2.09 2.557 3.01 2.347 5.4 3.625 1.25.669 1.91 1.149 2.12 1.996.01.065 1.74.141 1.97.141s.92.108 1.56.108h3.01s1.27-2.401 1.5-2.536c.19-.108.38-.577.76-1.543-.08-.151-.17-.297-.26-.459-2.35-4.013-2.9-1.866-4.89-.701s.06-3.334.06-3.334-.8-.049-2.96.378c-2.16.426-1.31-2.261-1.31-2.261l-5.48.955c-.24 1.171-2.29.691-3.12.157-.7-.454-1.2-.152-1.53.021.34.291.71.594 1.08.901zm-14.34-24.51c.08.033.17.049.27.049-.11-.032-.43-.124-.27-.049z"/></g><g clip-path="url(#b)" fill="#4d2277"><path d="m1544.06 59.389c-.71-.2581-7.85 4.5041-12.09 8.6388-1.38.9266-7.01 4.3751-13.02 2.991-6.9-1.5893-10.82-7.5186-8.74-13.3423 2.07-5.8237 5.75-4.8736 10.59-3.1787 0 0-3.34-4.6567-8.52-2.645-5.18 2.0116-7.48 10.4862-3.46 15.4595 3.48 4.293 11.24 8.0289 18.85 5.5774-1.49 2.1172-2.78 4.5863-3.65 7.4483-.44 1.4544-.6 2.9265-.5 4.3868-1.63-.0997-4.5-.3812-7.67-1.1378-5.15-1.3313-11.65-4.1522-16.48-10.1343-9.01-11.1665-5.62-21.0076-5.39-21.6351 4.28-8.1286 13.34-13.7353 23.82-13.7353 13.81 0 25.05 8.891 26.26 21.3067z"/><path d="m1503.98 80.6079c-6.26-1.2786-13.71.0351-18.12 5.9351.84-7.7004-5.91-17.4536-13.52-17.0078-7.01.4105-8.43 3.73-7.3 9.108 0 0-.78-6.0701 5.95-6.9087 6.74-.8387 16.19 10.5155 9.28 20.0399-7.78 10.7326-25.72 8.0406-30.07 3.859-4.38-5.1141-6.99-11.5653-6.99-18.5796 0-16.609 14.64-30.0746 32.69-30.0746 6.65 0 10.77.6745 15.93 3.818-.45 1.8826-4.56 21.1484 12.14 29.8165z"/><path d="m1517.56 104.706-3.17-4.7094c2.58-4.7035 2.61-10.8674-1.75-15.1428 3.3 1.2433 7.19 2.2755 11.3 2.4866 3.31 12.5741 23.96 22.8606 36.22 10.152 14.5-15.0373-6.67-27.0073-12.43-16.2044 0 0 7.6-4.5569 11.4-.1056 3.8 4.4455 4.83 7.0964 1.27 11.9642-3.57 4.8736-11.52 10.2814-22.68 4.9792-10.22-4.8502-17.31-18.0929.82-32.8193l5.71-4.1288c2.38-.4868 4.86-.7566 7.4-.7566 18.68.0059 33.84 13.9465 33.84 31.142 0 17.1959-15.16 31.1359-33.85 31.1359-4.35 0-8.51-.762-12.33-2.14 0 0-13.69-6.117-21.75-15.853z"/><path d="m1490.7 113.82c-1.36-2.622-2.77-5.677-3.8-7.964-1.96-5.167-3.08-10.9147-1.02-15.3309 4.85-10.4334 20.2-10.7325 25.49-3.8766s1.17 14.7205-2.86 16.8965c-4.84 2.604-10.04-1.009-10.16-4.0351-.12-3.0262 3.39-4.1757 7.73-2.5746 0 0-6.27-4.3282-8.97 1.1377-2.69 5.472 6.91 10.92 13.07 6.651 1.16-.798 2.18-1.801 3.04-2.939.73 1.244 1.54 2.411 2.38 3.49 2.42 3.847 8.19 9.507 21.65 16.615-5.79 3.777-11.82 5.354-19.45 5.354-9.39 0-17.91-3.366-24.26-8.844-.51-.744-1.59-2.392-2.84-4.586z"/><path d="m1446.91 96.2725c.8.5865 9.04 6.3635 18.06 5.4605 8.12-.816 14.18-4.0412 17.96-8.8034-.57 2.7271-.38 5.4894.27 8.1524 0 .029 0 .047.01.07 1.08 7.055 8.33 18.421 8.41 18.544-7.15 5.431-14.95 7.484-25.5 7.484-20.65 0-37.65-19.131-39.82-35.4761 3.83 4.2343 12.83 5.6653 20.61 4.5745z"/></g><g clip-path="url(#c)"><path d="m840.228 122.972c1.108-.905 1.888-1.672.385-2.686-2.274-1.535-5.18-3.069-5.271-2.666-.078.34-.209.621-.395.859-.955-.754-1.951-1.51-2.98-2.251.531-.511.92-.797.92-.797l-.704-1.181c-.912.67-1.612 1.297-2.154 1.863-7.384-5.869-36.322-28.4332-50.787-33.4467 0 0 15.666 10.3506 29.988 20.3637-.629.081-1.262.295-1.884.685-.216.136-.417.281-.61.431h.001s-6.436-3.994-7.834.981c-1.398 4.974-.801 7.142-.801 7.142s-1.091 2.227-3.196 2.802c-2.105.576-1.74 1.61-1.74 1.61l3.842 2.145s-2.037 4.248-1.456 4.415 3.064.516 2.245 3.546c-.216.798-.095 1.581.333 2.275-2.969 1.067-5.087 2.083-5.536 2.854-1.701 2.927-2.142 14.684.771 19.591s-4.144 4.225-4.328 8.875c0 0-3.933 1.459-10.705 9.392-6.772 7.932-12.47 17.012-16.712 19.737-7.176 4.611-5.792 11.692-5.792 11.692s-1.897 6.363-4.946 7.255c0 0-10.568-2.768-10.707 4.015l18.056.615s.822-2.361.057-4.776c0 0 3.487-3.218 6.378-6.768 5.565-6.835 5.07 5.764 18.657-5.719 13.586-11.484 9.171-3.272 16.948-4.003 7.777-.732 12.434-4.156 11.853-.393-.58 3.764-6.228 5.761-3.611 7.243 2.617 1.483 5.622 3.774 5.622 3.774l-1.355 6.84c-2.716 3.141-1.365 5.609-1.365 5.609l17.403.593s1.381-2.526-1.506-4.05c-1.893-.998-5.516-1.272-8.982-.842l1.005-5.784s1.335-.951 5.89-1.791c4.553-.84 9.138-8.448 4.84-13.772-4.296-5.321-3.716-3.71-2.897-8.062s-1.617-2.643-9.253-10.866c-7.637-8.222-.638-5.595-2.008-9.026 1.366-4.554.783-11.814.783-11.814 13.002 2.1 20.694-1.949 20.694-1.949.145-3.643-2.779-6.727-2.779-6.727 1.305-1.751 2.773-12.005 3.261-14.844 2.003 1.871 3.989 3.683 5.448 4.917l2.655-2.24s-2.208-2.451-5.735-5.668zm-35.689-16.27c-1.463 2.461-1.846 5.043-3.25 4.986-2.033-.084-1.191-5.444 3.25-4.986zm6.351 11.458c.037-.329 1.367-5.755-5.163-7.491 0 0 .34-5.94 7.034-2.768l2.048-.935c5.757 4.103 10.876 7.894 14.087 10.576-.665 1.045-.678 1.675-.678 1.675l1.286.586c.166-.436.369-.846.594-1.228.104.093.207.184.304.272.301.293.688.668 1.146 1.111-.53.368-.605 1.356-.406 2.549-1.437.599-3.359 1.219-5.612 1.5-.199-.506-.346-.799-.346-.799-1.69-.22-5.571.322-10.091 1.252-2.943-3.698-4.234-6.002-4.201-6.298zm19.903 19.202c-1.791-1.548-7.69 4.049-10.642 1.627-2.951-2.423-7.008.425-6.757-1.391.251-1.815 12.749-5.038 12.749-5.038.491-1.57.534-3.159.378-4.571 1.755-.597 3.786-1.491 5.571-2.34.469 1.111 1.037 2.108 1.567 2.69 1.718 1.881-2.868 9.021-2.868 9.021z" fill="#1a0233"/></g></g></svg>