<svg fill="none" height="44" viewBox="0 0 282 44" width="282" xmlns="http://www.w3.org/2000/svg"><g fill="#f0f"><path d="m41.9509 20.644-11.721 21.5771h-28.11906v-2.635h2.58405v-35.56608h-2.58405v-2.64697h28.11906zm-35.73105 18.9421h23.32895v-35.56608h-13.1459z"/><path d="m59.6708 4.021-4.3729 15.4h15.25v-2.638h2.0999v7.915h-2.0999v-2.635h-16.0441l-5.016 17.519h17.7841l7.3349-9.453.051 13.347h-2.0999v-1.26h-27.4441v-2.634h2.848v-35.561h-2.168v-2.64698h26.757v-1.37402h2.1l-.0509 13.41-7.3351-9.38998z"/><path d="m110.799 1.37402-11.7089 40.84798h-9.554l-11.709-40.84798h15.0359v2.64704h-2.5329v35.56504h7.9649v-35.56504h-3.2139v-2.64704z"/><path d="m172.28 20.644-11.717 21.5771h-28.119v-2.635h2.584v-35.56608h-2.584v-2.64697h28.119zm-35.731 18.9421h23.329v-35.56608h-13.146z"/><path d="m216.973 20.645-11.406 21.578h-18.783l-11.343-21.578 11.293-19.27098h18.893zm-29.82 18.9431h18.1v-35.56808h-18.1z"/><path d="m237.276 1.37402v2.64704h-3.375v38.20004h-13.763v-8.18l6.327 7.436 6.012-7.436-10.814-32.66805z"/><path d="m281.979 20.645-11.407 21.578h-18.779l-11.343-21.578 11.292-19.27098h18.894zm-29.82 18.9431h18.1v-35.56808h-18.1z"/></g><path d="m39.843 20.644-11.721 21.5771h-28.122v-2.635h2.58398v-35.56608h-2.58398v-2.64697h28.119zm-35.73399 18.9421h23.32999v-35.56608h-13.146z" fill="#0ff"/><path d="m57.5632 4.021-4.373 15.4h15.25v-2.638h2.1v7.915h-2.1v-2.635h-16.044l-5.016 17.519h17.783l7.335-9.453.051 13.347h-2.1v-1.26h-27.438v-2.634h2.8481v-35.561h-2.1681v-2.64698h26.757v-1.37402h2.1l-.051 13.41-7.335-9.38998z" fill="#0ff"/><path d="m108.688 1.37402-11.7092 40.84798h-9.554l-11.709-40.84798h15.036v2.64704h-2.533v35.56504h7.965v-35.56504h-3.2141v-2.64704z" fill="#0ff"/><path d="m170.17 20.644-11.721 21.5771h-28.119v-2.635h2.583v-35.56608h-2.583v-2.64697h28.119zm-35.728 18.9421h23.329v-35.56608h-13.149z" fill="#0ff"/><path d="m214.862 20.645-11.406 21.578h-18.78l-11.343-21.578 11.293-19.27098h18.893zm-29.82 18.9411h18.1v-35.56608h-18.1z" fill="#0ff"/><path d="m235.166 1.37402v2.64704h-3.377v38.20004h-13.763v-8.18l6.327 7.436 6.012-7.436-10.814-32.66805z" fill="#0ff"/><path d="m279.868 20.645-11.406 21.578h-18.78l-11.343-21.578 11.293-19.27098h18.893zm-29.82 18.9431h18.1v-35.56808h-18.1z" fill="#0ff"/><path d="m40.8958 20.644-11.7211 21.5771h-28.12099v-2.635h2.58399v-35.56608h-2.58399v-2.64697h28.11899zm-35.73107 18.9421h23.33007v-35.56608h-13.1461z" fill="#fff"/><path d="m58.6168 4.021-4.3729 15.4h15.25v-2.638h2.1v7.915h-2.1v-2.635h-16.0441l-5.016 17.519h17.7841l7.335-9.453.051 13.347h-2.1v-1.26h-27.438v-2.634h2.8479v-35.561h-2.168v-2.64698h26.7571v-1.37402h2.1l-.051 13.41-7.335-9.38998z" fill="#fff"/><path d="m109.744 1.37402-11.7091 40.84798h-9.5539l-11.709-40.84798h15.0399v2.64704h-2.533v35.56504h7.965v-35.56504h-3.214v-2.64704z" fill="#fff"/><path d="m171.225 20.644-11.721 21.5771h-28.119v-2.635h2.584v-35.56608h-2.584v-2.64697h28.119zm-35.731 18.9421h23.329v-35.56608h-13.146z" fill="#fff"/><path d="m215.917 20.645-11.407 21.578h-18.779l-11.343-21.578 11.292-19.27098h18.892zm-29.82 18.9431h18.1v-35.56808h-18.1z" fill="#fff"/><path d="m236.221 1.37402v2.64704h-3.377v38.20004h-13.764v-8.18l6.327 7.436 6.012-7.436-10.814-32.66805z" fill="#fff"/><path d="m280.925 20.645-11.406 21.578h-18.78l-11.343-21.578 11.293-19.27098h18.893zm-29.82 18.9431h18.1v-35.56808h-18.1z" fill="#fff"/></svg>