<svg fill="none" height="737" viewBox="0 0 307 737" width="307" xmlns="http://www.w3.org/2000/svg" xmlns:xlink="http://www.w3.org/1999/xlink"><clipPath id="a"><path d="m0 641h173.397v96h-173.397z"/></clipPath><clipPath id="b"><path d="m16.1548 0h173.397v96h-173.397z"/></clipPath><g clip-path="url(#a)" fill="#1a0233"><path d="m45.1196 663.939c.7777-.278 8.5546 4.849 13.1721 9.301 1.4999.998 7.6381 4.71 14.179 3.22 7.5199-1.711 11.7903-8.095 9.5267-14.364-2.2567-6.27-6.2702-5.248-11.5334-3.423 0 0 3.6384-5.013 9.2767-2.847 5.6452 2.165 8.1518 11.289 3.7634 16.644-3.7843 4.622-12.2347 8.644-20.5254 6.004 1.6248 2.28 3.0205 4.938 3.9718 8.019.486 1.566.6527 3.151.5485 4.723 1.7706-.107 4.9022-.41 8.3532-1.225 5.6105-1.433 12.693-4.47 17.9494-10.91 9.8114-12.023 6.1243-22.618 5.8743-23.293-4.6661-8.752-14.5331-14.788-25.9484-14.788-15.0469 0-27.2816 9.572-28.6079 22.939z"/><path d="m88.7817 686.784c6.8187-1.377 14.9293.038 19.7413 6.39-.917-8.291 6.429-18.791 14.727-18.311 7.631.442 9.173 4.016 7.95 9.806 0 0 .848-6.536-6.485-7.438-7.339-.903-17.637 11.321-10.11 21.575 8.478 11.555 28.018 8.657 32.753 4.155 4.771-5.506 7.618-12.452 7.618-20.004 0-17.881-15.943-32.378-35.607-32.378-7.25 0-11.728.726-17.353 4.11.486 2.027 4.965 22.769-13.2273 32.101z"/><path d="m73.9915 712.729 3.451-5.071c-2.8121-5.064-2.8399-11.7 1.9026-16.303-3.5968 1.339-7.8324 2.45-12.3041 2.677-3.6107 13.538-26.1012 24.613-39.4539 10.93-15.7968-16.189 7.27-29.076 13.5401-17.446 0 0-8.2768-4.906-12.4152-.113-4.1384 4.786-5.2633 7.64-1.3818 12.88 3.8885 5.247 12.5402 11.069 24.6986 5.361 11.1307-5.222 18.852-19.479-.8958-35.334l-6.2145-4.445c-2.5969-.524-5.2911-.814-8.0616-.814-20.3518.006-36.8569 15.015-36.8569 33.528s16.5051 33.521 36.8638 33.521c4.7426 0 9.2698-.821 13.436-2.304 0 0 14.915-6.586 23.6917-17.067z"/><path d="m103.245 722.541c1.479-2.823 3.021-6.113 4.138-8.575 2.139-5.563 3.354-11.751 1.118-16.505-5.291-11.233-22.0041-11.555-27.7673-4.174s-1.2776 15.849 3.1177 18.191c5.2702 2.804 10.9293-1.086 11.0612-4.344.132-3.258-3.687-4.496-8.4157-2.772 0 0 6.8256-4.66 9.7628 1.225 2.9372 5.891-7.5269 11.757-14.2345 7.16-1.2568-.858-2.3747-1.938-3.3121-3.163-.7916 1.339-1.6734 2.595-2.59 3.757-2.6386 4.142-8.9226 10.235-23.5806 17.888 6.3048 4.066 12.8735 5.765 21.1851 5.765 10.228 0 19.5116-3.625 26.4204-9.522.556-.802 1.736-2.576 3.097-4.938z"/><path d="m150.948 703.649c-.875.631-9.846 6.851-19.671 5.878-8.854-.878-15.45-4.35-19.568-9.477.625 2.936.417 5.91-.298 8.776 0 .032 0 .051-.007.076-1.181 7.596-9.069 19.833-9.159 19.965 7.791 5.847 16.283 8.057 27.775 8.057 22.497 0 41.009-20.597 43.37-38.194-4.173 4.559-13.971 6.099-22.449 4.925z"/></g><g fill="#4d2277"><path d="m161.132 408.046c.881-.316 9.692 5.506 14.923 10.56 1.699 1.132 8.653 5.348 16.063 3.656 8.52-1.943 13.358-9.191 10.793-16.31-2.556-7.119-7.103-5.957-13.066-3.886 0 0 4.122-5.692 10.51-3.233 6.395 2.459 9.235 12.819 4.263 18.898-4.287 5.248-13.861 9.815-23.253 6.818 1.84 2.588 3.422 5.606 4.499 9.105.551 1.778.74 3.577.622 5.362 2.006-.121 5.554-.466 9.463-1.39 6.356-1.628 14.38-5.076 20.335-12.389 11.116-13.65 6.939-25.68 6.655-26.447-5.286-9.936-16.464-16.79-29.397-16.79-17.047 0-30.908 10.868-32.41 26.046z"/><path d="m210.597 433.984c7.725-1.563 16.913.043 22.364 7.255-1.038-9.413 7.285-21.335 16.685-20.79 8.646.501 10.392 4.559 9.008 11.133 0 0 .959-7.42-7.348-8.445-8.315-1.025-19.981 12.854-11.453 24.497 9.605 13.12 31.741 9.829 37.106 4.717 5.404-6.251 8.63-14.137 8.63-22.712 0-20.303-18.062-36.763-40.34-36.763-8.213 0-13.287.824-19.658 4.667.55 2.301 5.624 25.852-14.986 36.448z"/><path d="m193.834 463.442 3.91-5.757c-3.186-5.75-3.218-13.284 2.155-18.511-4.075 1.52-8.874 2.782-13.94 3.04-4.09 15.371-29.57 27.946-44.697 12.41-17.897-18.382 8.236-33.014 15.339-19.808 0 0-9.376-5.571-14.065-.13-4.688 5.435-5.963 8.675-1.565 14.626 4.405 5.957 14.207 12.567 27.981 6.086 12.61-5.929 21.358-22.117-1.015-40.118l-7.04-5.048c-2.942-.595-5.995-.924-9.133-.924-23.065 0-41.764 17.041-41.764 38.061s18.699 38.061 41.764 38.061c5.372 0 10.501-.932 15.221-2.617 0 0 16.898-7.477 26.841-19.378z"/><path d="m226.983 474.583c1.675-3.205 3.422-6.94 4.688-9.736 2.423-6.316 3.8-13.342 1.267-18.74-5.995-12.754-24.929-13.12-31.459-4.739-6.529 8.381-1.447 17.994 3.533 20.654 5.97 3.183 12.382-1.233 12.531-4.932.149-3.7-4.177-5.105-9.534-3.147 0 0 7.733-5.291 11.06 1.39 3.328 6.689-8.527 13.349-16.126 8.13-1.424-.975-2.691-2.201-3.753-3.592-.896 1.52-1.896 2.947-2.934 4.266-2.989 4.703-10.108 11.621-26.715 20.31 7.143 4.617 14.585 6.546 24.001 6.546 11.588 0 22.105-4.115 29.932-10.811.63-.911 1.967-2.925 3.509-5.607z"/><path d="m281.026 453.132c-.991.717-11.155 7.779-22.286 6.675-10.03-.997-17.503-4.94-22.168-10.761.708 3.334.472 6.71-.338 9.965 0 .036 0 .058-.008.086-1.337 8.625-10.273 22.519-10.376 22.669 8.827 6.639 18.447 9.148 31.466 9.148 25.488-.007 46.46-23.393 49.143-43.373-4.728 5.176-15.828 6.925-25.433 5.591z"/></g><g clip-path="url(#b)" fill="#300259"><path d="m61.2744 22.9392c.7777-.2778 8.5546 4.8493 13.1721 9.3007 1.4998.9977 7.638 4.7104 14.179 3.2202 7.5199-1.7111 11.7905-8.0947 9.5266-14.3646-2.2566-6.2699-6.2701-5.247-11.5334-3.4223 0 0 3.6385-5.0134 9.2768-2.8476 5.6455 2.1657 8.1515 11.2896 3.7634 16.644-3.7843 4.622-12.2347 8.6441-20.5254 6.0047 1.6248 2.2794 3.0205 4.9377 3.9717 8.019.4861 1.5659.6528 3.1507.5486 4.723 1.7706-.1074 4.9022-.4105 8.3532-1.225 5.6105-1.4333 12.693-4.4704 17.949-10.9108 9.812-12.0221 6.125-22.6172 5.875-23.2928-4.666-8.75139-14.533-14.7877-25.9487-14.7877-15.0469 0-27.2816 9.57222-28.6079 22.9392z"/><path d="m104.936 45.7838c6.819-1.3765 14.929.0379 19.741 6.3899-.916-8.2904 6.43-18.7908 14.728-18.311 7.631.442 9.172 4.0158 7.95 9.8059 0 0 .847-6.5351-6.485-7.4381-7.34-.9029-17.637 11.3213-10.11 21.5754 8.478 11.5549 28.017 8.6567 32.753 4.1547 4.77-5.5059 7.617-12.4514 7.617-20.0031 0-17.8816-15.943-32.37889-35.607-32.37889-7.249 0-11.728.72609-17.352 4.11049.486 2.0268 4.965 22.7688-13.228 32.101z"/><path d="m90.1463 71.7285 3.451-5.0702c-2.8122-5.064-2.8399-11.7001 1.9026-16.3031-3.5968 1.3386-7.8324 2.4499-12.3042 2.6772-3.6107 13.5375-26.1011 24.6125-39.4538 10.9297-15.7968-16.1894 7.27-29.0765 13.5401-17.4459 0 0-8.2768-4.9061-12.4152-.1137-4.1384 4.7862-5.2633 7.6401-1.3818 12.8809 3.8884 5.247 12.5402 11.0686 24.6986 5.3607 11.1306-5.2218 18.852-19.4791-.8958-35.3339l-6.2145-4.4451c-2.597-.5241-5.2911-.8146-8.0616-.8146-20.3519.0064-36.8569 15.015-36.8569 33.5281 0 18.513 16.505 33.5217 36.8638 33.5217 4.7425 0 9.2698-.8209 13.436-2.3047 0 0 14.915-6.5856 23.6917-17.0671z"/><path d="m119.4 81.5406c1.479-2.8224 3.02-6.1121 4.138-8.5746 2.139-5.5628 3.354-11.7506 1.118-16.5051-5.291-11.2329-22.004-11.5549-27.7675-4.1737-5.7632 7.3812-1.2776 15.8485 3.1175 18.191 5.27 2.8035 10.929-1.086 11.061-4.3441s-3.687-4.4957-8.415-2.7719c0 0 6.825-4.6598 9.762 1.2249 2.938 5.8911-7.526 11.7569-14.234 7.1603-1.2568-.8588-2.3747-1.9385-3.3121-3.1634-.7916 1.3386-1.6734 2.5951-2.59 3.7569-2.6386 4.1421-8.9226 10.2352-23.5806 17.8879 6.3048 4.0663 12.8735 5.7648 21.185 5.7648 10.2277 0 19.5117-3.6243 26.4207-9.5217.555-.8019 1.736-2.5762 3.097-4.9376z"/><path d="m167.103 62.6487c-.875.6314-9.846 6.8508-19.671 5.8784-8.854-.8776-15.45-4.3504-19.568-9.4775.625 2.9361.417 5.9101-.298 8.7767 0 .0315 0 .0505-.007.0757-1.181 7.5959-9.069 19.8327-9.159 19.9653 7.791 5.8469 16.283 8.0568 27.775 8.0568 22.497 0 41.009-20.5966 43.37-38.1941-4.173 4.5588-13.971 6.0994-22.449 4.925z"/></g></svg>